<mxfile host="app.diagrams.net" agent="Mozilla/5.0 (Macintosh; Intel Mac OS X 10_15_7) AppleWebKit/537.36 (KHTML, like Gecko) Chrome/129.0.0.0 Safari/537.36 Edg/129.0.0.0" version="26.0.4">
  <diagram name="Page-1" id="FsptPILZ8T6lK9FOEIn6">
    <mxGraphModel dx="2628" dy="1905" grid="1" gridSize="10" guides="1" tooltips="1" connect="1" arrows="1" fold="1" page="1" pageScale="1" pageWidth="1654" pageHeight="1169" math="0" shadow="0">
      <root>
        <mxCell id="0" />
        <mxCell id="1" parent="0" />
        <UserObject label="" plantUmlData="{&#xa;  &quot;data&quot;: &quot;@startuml Existing School Management System\n\nleft to right direction\nskinparam linetype polyline\n\nactor \&quot;Teacher\&quot; as T\nactor \&quot;Class Teacher\&quot; as CT\nactor \&quot;Sectional Head\&quot; as SH\nactor \&quot;Treasurer\&quot; as TR\nactor \&quot;Student\&quot; as S\nactor \&quot;Prefects\&quot; as SP\nactor \&quot;Principal\&quot; as P\nactor \&quot;Vice Principal\&quot; as VP\n\nT &lt;|-- CT\nT &lt;|-- SH\nT &lt;|-- TR\nS &lt;|-- SP\nVP &lt;|-- P\n\nrectangle \&quot;Existing School Management System\&quot; {\n    T -- (Report Duty)\n    T -- (View Schedule)\n    T -- (Prepare Exam Papers)\n    T -- (Record Lesson Progress)\n    T -- (Invigilate Exams)\n    T -- (Mark Exam Papers)\n    T -- (Supervise Clubs and Societies)\n    T -- (Request Leaves and Short Leaves)\n        \n    (Report Duty) ..&gt; (Verify Using Fingerprint) : &lt;&lt;include&gt;&gt;\n\n    CT -- (Mark Students Attendence)\n    CT -- (Collect School Fees)\n    CT -- (Collect Parents Letters)\n    CT -- (Sort Exam Results)\n    CT -- (Enter Exam Results into Student Report Book)\n\n    (Sort Exam Results) ..&gt; (Grade Students) : &lt;&lt;include&gt;&gt;\n    (Enter Exam Results into Student Report Book) ..&gt; (Rank Students) : &lt;&lt;include&gt;&gt;\n\n    SH -- (Coordinate Teachers)\n    SH -- (Coordinate Students)\n    SH -- (Organize Events)\n    SH -- (Collaborate with the Management)\n\n    (Collaborate with the Management) ..&gt; (Keep Records) : &lt;&lt;include&gt;&gt;\n    (Organize Events) ..&gt; (Inform Students and Teachers) : &lt;&lt;include&gt;&gt;\n\n    TR -- (Collect School Fees from Class Teachers)\n    TR -- (Deposit Funds to School Account)\n    TR -- (Keep Financial Records)\n\n    (Deposit Funds to School Account) ..&gt; (Record Transactions) : &lt;&lt;include&gt;&gt;\n\n    S -- (Create Clubs and Societies)\n    S -- (Pay School Fees)\n\n    (Create Clubs and Societies) &lt;.. (Add Members) : &lt;&lt;extends&gt;&gt;\n    (Create Clubs and Societies) &lt;.. (Inform Members) : &lt;&lt;extends&gt;&gt;\n\n    SP -- (Assist in Student Discipline)\n    SP -- (Organize Student Events)\n\n    (Assist in Student Discipline) ..&gt; (Report Misconducts) : &lt;&lt;include&gt;&gt;\n    (Organize Student Events) ..&gt; (Inform Students) : &lt;&lt;include&gt;&gt;\n\n    P -- (Overall School Management)\n    P -- (Organize Special Events)\n    P -- (Take Important Decisions)\n\n    (Organize Special Events) ..&gt; (Inform the School) : &lt;&lt;include&gt;&gt;\n    (Take Important Decisions) ..&gt; (Collaborate with The Staff) : &lt;&lt;include&gt;&gt;\n    (Overall School Management) ..&gt; (Set School Policies) : &lt;&lt;include&gt;&gt;\n\n    VP -- (Assist Principal)\n    VP -- (Coordinate School Management)\n    VP -- (Issueing Cheques)\n    VP -- (Collect Funds for Development)\n    VP -- (Register New Students)\n    VP -- (Generate Student Leaving Certificates)\n\n    (Generate Student Leaving Certificates) ..&gt; (Update Logs and Records) : &lt;&lt;include&gt;&gt;\n    (Assist Principal) ..&gt; (Handle Administrative Tasks) : &lt;&lt;include&gt;&gt;\n    (Coordinate School Management) ..&gt; (Keep Management Records) : &lt;&lt;include&gt;&gt;\n    (Collect Funds for Development) ..&gt; (Collaborate with Treasurer) : &lt;&lt;include&gt;&gt;\n    (Issueing Cheques) ..&gt; (Collaborate with The Treasurer) : &lt;&lt;include&gt;&gt;\n    (Register New Students) ..&gt; (Update Logs and Records) : &lt;&lt;include&gt;&gt;\n}\n\n@enduml&quot;,&#xa;  &quot;format&quot;: &quot;svg&quot;&#xa;}" id="JNCmEPvPMJj89BbZK-uY-1">
          <mxCell style="shape=image;noLabel=1;verticalAlign=top;aspect=fixed;imageAspect=0;image=data:image/svg+xml,PD94bWwgdmVyc2lvbj0iMS4wIiBlbmNvZGluZz0idXMtYXNjaWkiIHN0YW5kYWxvbmU9Im5vIj8+PHN2ZyB4bWxucz0iaHR0cDovL3d3dy53My5vcmcvMjAwMC9zdmciIHhtbG5zOnhsaW5rPSJodHRwOi8vd3d3LnczLm9yZy8xOTk5L3hsaW5rIiBjb250ZW50U3R5bGVUeXBlPSJ0ZXh0L2NzcyIgaGVpZ2h0PSIyNjU4cHgiIHByZXNlcnZlQXNwZWN0UmF0aW89Im5vbmUiIHN0eWxlPSJ3aWR0aDoxMDQycHg7aGVpZ2h0OjI2NThweDtiYWNrZ3JvdW5kOiNGRkZGRkY7IiB2ZXJzaW9uPSIxLjEiIHZpZXdCb3g9IjAgMCAxMDQyIDI2NTgiIHdpZHRoPSIxMDQycHgiIHpvb21BbmRQYW49Im1hZ25pZnkiPjxkZWZzLz48Zz48IS0tY2x1c3RlciBFeGlzdGluZyBTY2hvb2wgTWFuYWdlbWVudCBTeXN0ZW0tLT48ZyBpZD0iY2x1c3Rlcl9FeGlzdGluZyBTY2hvb2wgTWFuYWdlbWVudCBTeXN0ZW0iPjxyZWN0IGZpbGw9Im5vbmUiIGhlaWdodD0iMjY0NSIgcng9IjIuNSIgcnk9IjIuNSIgc3R5bGU9InN0cm9rZTojMTgxODE4O3N0cm9rZS13aWR0aDoxLjA7IiB3aWR0aD0iNzI2IiB4PSIzMTAiIHk9IjciLz48dGV4dCBmaWxsPSIjMDAwMDAwIiBmb250LWZhbWlseT0ic2Fucy1zZXJpZiIgZm9udC1zaXplPSIxNCIgZm9udC13ZWlnaHQ9ImJvbGQiIGxlbmd0aEFkanVzdD0ic3BhY2luZyIgdGV4dExlbmd0aD0iMjMzIiB4PSI1NTYuNSIgeT0iMjIuMjM0NCI+RXhpc3RpbmcgU2Nob29sIE1hbmFnZW1lbnQgU3lzdGVtPC90ZXh0PjwvZz48ZyBpZD0iZWxlbV9SZXBvcnQgRHV0eSI+PGVsbGlwc2UgY3g9IjQ5MC42Njg1IiBjeT0iMTA0MS4xMzM3IiBmaWxsPSIjRjFGMUYxIiByeD0iNjEuMTY4NSIgcnk9IjE0LjYzMzciIHN0eWxlPSJzdHJva2U6IzE4MTgxODtzdHJva2Utd2lkdGg6MC41OyIvPjx0ZXh0IGZpbGw9IiMwMDAwMDAiIGZvbnQtZmFtaWx5PSJzYW5zLXNlcmlmIiBmb250LXNpemU9IjE0IiBsZW5ndGhBZGp1c3Q9InNwYWNpbmciIHRleHRMZW5ndGg9Ijc3IiB4PSI0NTIuMTY4NSIgeT0iMTA0NC44NzU5Ij5SZXBvcnQgRHV0eTwvdGV4dD48L2c+PGcgaWQ9ImVsZW1fVmlldyBTY2hlZHVsZSI+PGVsbGlwc2UgY3g9IjQ5MC41ODg0IiBjeT0iMTEwNi44MTc3IiBmaWxsPSIjRjFGMUYxIiByeD0iNjcuMDg4NCIgcnk9IjE1LjgxNzciIHN0eWxlPSJzdHJva2U6IzE4MTgxODtzdHJva2Utd2lkdGg6MC41OyIvPjx0ZXh0IGZpbGw9IiMwMDAwMDAiIGZvbnQtZmFtaWx5PSJzYW5zLXNlcmlmIiBmb250LXNpemU9IjE0IiBsZW5ndGhBZGp1c3Q9InNwYWNpbmciIHRleHRMZW5ndGg9IjkyIiB4PSI0NDQuNTg4NCIgeT0iMTExMC41NTk5Ij5WaWV3IFNjaGVkdWxlPC90ZXh0PjwvZz48ZyBpZD0iZWxlbV9QcmVwYXJlIEV4YW0gUGFwZXJzIj48ZWxsaXBzZSBjeD0iNDkwLjU1MDciIGN5PSIxMTc3LjkxMDEiIGZpbGw9IiNGMUYxRjEiIHJ4PSI4NS4wNTA3IiByeT0iMTkuNDEwMSIgc3R5bGU9InN0cm9rZTojMTgxODE4O3N0cm9rZS13aWR0aDowLjU7Ii8+PHRleHQgZmlsbD0iIzAwMDAwMCIgZm9udC1mYW1pbHk9InNhbnMtc2VyaWYiIGZvbnQtc2l6ZT0iMTQiIGxlbmd0aEFkanVzdD0ic3BhY2luZyIgdGV4dExlbmd0aD0iMTM0IiB4PSI0MjMuNTUwNyIgeT0iMTE4MS42NTIzIj5QcmVwYXJlIEV4YW0gUGFwZXJzPC90ZXh0PjwvZz48ZyBpZD0iZWxlbV9SZWNvcmQgTGVzc29uIFByb2dyZXNzIj48ZWxsaXBzZSBjeD0iNDkwLjU2MjIiIGN5PSIxMjU0LjIxMjQiIGZpbGw9IiNGMUYxRjEiIHJ4PSI5NC4wNjIyIiByeT0iMjEuMjEyNCIgc3R5bGU9InN0cm9rZTojMTgxODE4O3N0cm9rZS13aWR0aDowLjU7Ii8+PHRleHQgZmlsbD0iIzAwMDAwMCIgZm9udC1mYW1pbHk9InNhbnMtc2VyaWYiIGZvbnQtc2l6ZT0iMTQiIGxlbmd0aEFkanVzdD0ic3BhY2luZyIgdGV4dExlbmd0aD0iMTU0IiB4PSI0MTMuNTYyMiIgeT0iMTI1Ny45NTQ2Ij5SZWNvcmQgTGVzc29uIFByb2dyZXNzPC90ZXh0PjwvZz48ZyBpZD0iZWxlbV9JbnZpZ2lsYXRlIEV4YW1zIj48ZWxsaXBzZSBjeD0iNDkwLjM2NjgiIGN5PSIxMzI4LjA3MzQiIGZpbGw9IiNGMUYxRjEiIHJ4PSI3NS44NjY4IiByeT0iMTcuNTczNCIgc3R5bGU9InN0cm9rZTojMTgxODE4O3N0cm9rZS13aWR0aDowLjU7Ii8+PHRleHQgZmlsbD0iIzAwMDAwMCIgZm9udC1mYW1pbHk9InNhbnMtc2VyaWYiIGZvbnQtc2l6ZT0iMTQiIGxlbmd0aEFkanVzdD0ic3BhY2luZyIgdGV4dExlbmd0aD0iMTEzIiB4PSI0MzMuODY2OCIgeT0iMTMzMS44MTU1Ij5JbnZpZ2lsYXRlIEV4YW1zPC90ZXh0PjwvZz48ZyBpZD0iZWxlbV9NYXJrIEV4YW0gUGFwZXJzIj48ZWxsaXBzZSBjeD0iNDkwLjM2NjgiIGN5PSIxMzk4LjA3MzQiIGZpbGw9IiNGMUYxRjEiIHJ4PSI3NS44NjY4IiByeT0iMTcuNTczNCIgc3R5bGU9InN0cm9rZTojMTgxODE4O3N0cm9rZS13aWR0aDowLjU7Ii8+PHRleHQgZmlsbD0iIzAwMDAwMCIgZm9udC1mYW1pbHk9InNhbnMtc2VyaWYiIGZvbnQtc2l6ZT0iMTQiIGxlbmd0aEFkanVzdD0ic3BhY2luZyIgdGV4dExlbmd0aD0iMTEzIiB4PSI0MzMuODY2OCIgeT0iMTQwMS44MTU1Ij5NYXJrIEV4YW0gUGFwZXJzPC90ZXh0PjwvZz48ZyBpZD0iZWxlbV9TdXBlcnZpc2UgQ2x1YnMgYW5kIFNvY2lldGllcyI+PGVsbGlwc2UgY3g9IjQ5MC4zNDAxIiBjeT0iMTQ3Ni43NjgiIGZpbGw9IiNGMUYxRjEiIHJ4PSIxMTYuODQwMSIgcnk9IjI1Ljc2OCIgc3R5bGU9InN0cm9rZTojMTgxODE4O3N0cm9rZS13aWR0aDowLjU7Ii8+PHRleHQgZmlsbD0iIzAwMDAwMCIgZm9udC1mYW1pbHk9InNhbnMtc2VyaWYiIGZvbnQtc2l6ZT0iMTQiIGxlbmd0aEFkanVzdD0ic3BhY2luZyIgdGV4dExlbmd0aD0iMjAzIiB4PSIzODguODQwMSIgeT0iMTQ4MC41MTAyIj5TdXBlcnZpc2UgQ2x1YnMgYW5kIFNvY2lldGllczwvdGV4dD48L2c+PGcgaWQ9ImVsZW1fUmVxdWVzdCBMZWF2ZXMgYW5kIFNob3J0IExlYXZlcyI+PGVsbGlwc2UgY3g9IjQ5MC40NzIzIiBjeT0iMTU2NS4wOTQ1IiBmaWxsPSIjRjFGMUYxIiByeD0iMTIzLjQ3MjMiIHJ5PSIyNy4wOTQ1IiBzdHlsZT0ic3Ryb2tlOiMxODE4MTg7c3Ryb2tlLXdpZHRoOjAuNTsiLz48dGV4dCBmaWxsPSIjMDAwMDAwIiBmb250LWZhbWlseT0ic2Fucy1zZXJpZiIgZm9udC1zaXplPSIxNCIgbGVuZ3RoQWRqdXN0PSJzcGFjaW5nIiB0ZXh0TGVuZ3RoPSIyMTciIHg9IjM4MS45NzIzIiB5PSIxNTY4LjgzNjYiPlJlcXVlc3QgTGVhdmVzIGFuZCBTaG9ydCBMZWF2ZXM8L3RleHQ+PC9nPjxnIGlkPSJlbGVtX1ZlcmlmeSBVc2luZyBGaW5nZXJwcmludCI+PGVsbGlwc2UgY3g9Ijg5OS40ODUiIGN5PSIxMDQwLjk5NyIgZmlsbD0iI0YxRjFGMSIgcng9IjEwMC40ODUiIHJ5PSIyMi40OTciIHN0eWxlPSJzdHJva2U6IzE4MTgxODtzdHJva2Utd2lkdGg6MC41OyIvPjx0ZXh0IGZpbGw9IiMwMDAwMDAiIGZvbnQtZmFtaWx5PSJzYW5zLXNlcmlmIiBmb250LXNpemU9IjE0IiBsZW5ndGhBZGp1c3Q9InNwYWNpbmciIHRleHRMZW5ndGg9IjE2OCIgeD0iODE1LjQ4NSIgeT0iMTA0NC43MzkyIj5WZXJpZnkgVXNpbmcgRmluZ2VycHJpbnQ8L3RleHQ+PC9nPjxnIGlkPSJlbGVtX01hcmsgU3R1ZGVudHMgQXR0ZW5kZW5jZSI+PGVsbGlwc2UgY3g9IjQ5MC40ODUiIGN5PSI2Mi45OTciIGZpbGw9IiNGMUYxRjEiIHJ4PSIxMDAuNDg1IiByeT0iMjIuNDk3IiBzdHlsZT0ic3Ryb2tlOiMxODE4MTg7c3Ryb2tlLXdpZHRoOjAuNTsiLz48dGV4dCBmaWxsPSIjMDAwMDAwIiBmb250LWZhbWlseT0ic2Fucy1zZXJpZiIgZm9udC1zaXplPSIxNCIgbGVuZ3RoQWRqdXN0PSJzcGFjaW5nIiB0ZXh0TGVuZ3RoPSIxNjgiIHg9IjQwNi40ODUiIHk9IjY2LjczOTIiPk1hcmsgU3R1ZGVudHMgQXR0ZW5kZW5jZTwvdGV4dD48L2c+PGcgaWQ9ImVsZW1fQ29sbGVjdCBTY2hvb2wgRmVlcyI+PGVsbGlwc2UgY3g9IjQ5MC42MDYyIiBjeT0iMTM5LjgyMTIiIGZpbGw9IiNGMUYxRjEiIHJ4PSI4NC42MDYyIiByeT0iMTkuMzIxMiIgc3R5bGU9InN0cm9rZTojMTgxODE4O3N0cm9rZS13aWR0aDowLjU7Ii8+PHRleHQgZmlsbD0iIzAwMDAwMCIgZm9udC1mYW1pbHk9InNhbnMtc2VyaWYiIGZvbnQtc2l6ZT0iMTQiIGxlbmd0aEFkanVzdD0ic3BhY2luZyIgdGV4dExlbmd0aD0iMTMzIiB4PSI0MjQuMTA2MiIgeT0iMTQzLjU2MzQiPkNvbGxlY3QgU2Nob29sIEZlZXM8L3RleHQ+PC9nPjxnIGlkPSJlbGVtX0NvbGxlY3QgUGFyZW50cyBMZXR0ZXJzIj48ZWxsaXBzZSBjeD0iNDkwLjI2MzMiIGN5PSIyMTYuODUyNyIgZmlsbD0iI0YxRjFGMSIgcng9Ijk3LjI2MzMiIHJ5PSIyMS44NTI3IiBzdHlsZT0ic3Ryb2tlOiMxODE4MTg7c3Ryb2tlLXdpZHRoOjAuNTsiLz48dGV4dCBmaWxsPSIjMDAwMDAwIiBmb250LWZhbWlseT0ic2Fucy1zZXJpZiIgZm9udC1zaXplPSIxNCIgbGVuZ3RoQWRqdXN0PSJzcGFjaW5nIiB0ZXh0TGVuZ3RoPSIxNjEiIHg9IjQwOS43NjMzIiB5PSIyMjAuNTk0OCI+Q29sbGVjdCBQYXJlbnRzIExldHRlcnM8L3RleHQ+PC9nPjxnIGlkPSJlbGVtX1NvcnQgRXhhbSBSZXN1bHRzIj48ZWxsaXBzZSBjeD0iNDkwLjM5MDIiIGN5PSIyOTIuMTc4IiBmaWxsPSIjRjFGMUYxIiByeD0iNzguODkwMiIgcnk9IjE4LjE3OCIgc3R5bGU9InN0cm9rZTojMTgxODE4O3N0cm9rZS13aWR0aDowLjU7Ii8+PHRleHQgZmlsbD0iIzAwMDAwMCIgZm9udC1mYW1pbHk9InNhbnMtc2VyaWYiIGZvbnQtc2l6ZT0iMTQiIGxlbmd0aEFkanVzdD0ic3BhY2luZyIgdGV4dExlbmd0aD0iMTIwIiB4PSI0MzAuMzkwMiIgeT0iMjk1LjkyMDIiPlNvcnQgRXhhbSBSZXN1bHRzPC90ZXh0PjwvZz48ZyBpZD0iZWxlbV9FbnRlciBFeGFtIFJlc3VsdHMgaW50byBTdHVkZW50IFJlcG9ydCBCb29rIj48ZWxsaXBzZSBjeD0iNDkwLjQwNzMiIGN5PSIzODAuNzgxNSIgZmlsbD0iI0YxRjFGMSIgcng9IjE2NC40MDczIiByeT0iMzUuMjgxNSIgc3R5bGU9InN0cm9rZTojMTgxODE4O3N0cm9rZS13aWR0aDowLjU7Ii8+PHRleHQgZmlsbD0iIzAwMDAwMCIgZm9udC1mYW1pbHk9InNhbnMtc2VyaWYiIGZvbnQtc2l6ZT0iMTQiIGxlbmd0aEFkanVzdD0ic3BhY2luZyIgdGV4dExlbmd0aD0iMzAyIiB4PSIzMzkuNDA3MyIgeT0iMzg0LjUyMzciPkVudGVyIEV4YW0gUmVzdWx0cyBpbnRvIFN0dWRlbnQgUmVwb3J0IEJvb2s8L3RleHQ+PC9nPjxnIGlkPSJlbGVtX0dyYWRlIFN0dWRlbnRzIj48ZWxsaXBzZSBjeD0iODk5LjU0NTYiIGN5PSIyOTEuODA5MSIgZmlsbD0iI0YxRjFGMSIgcng9IjY5LjU0NTYiIHJ5PSIxNi4zMDkxIiBzdHlsZT0ic3Ryb2tlOiMxODE4MTg7c3Ryb2tlLXdpZHRoOjAuNTsiLz48dGV4dCBmaWxsPSIjMDAwMDAwIiBmb250LWZhbWlseT0ic2Fucy1zZXJpZiIgZm9udC1zaXplPSIxNCIgbGVuZ3RoQWRqdXN0PSJzcGFjaW5nIiB0ZXh0TGVuZ3RoPSI5OCIgeD0iODUwLjU0NTYiIHk9IjI5NS41NTEzIj5HcmFkZSBTdHVkZW50czwvdGV4dD48L2c+PGcgaWQ9ImVsZW1fUmFuayBTdHVkZW50cyI+PGVsbGlwc2UgY3g9Ijg5OS42ODM0IiBjeT0iMzgxLjIzNjciIGZpbGw9IiNGMUYxRjEiIHJ4PSI2Ni42ODM0IiByeT0iMTUuNzM2NyIgc3R5bGU9InN0cm9rZTojMTgxODE4O3N0cm9rZS13aWR0aDowLjU7Ii8+PHRleHQgZmlsbD0iIzAwMDAwMCIgZm9udC1mYW1pbHk9InNhbnMtc2VyaWYiIGZvbnQtc2l6ZT0iMTQiIGxlbmd0aEFkanVzdD0ic3BhY2luZyIgdGV4dExlbmd0aD0iOTEiIHg9Ijg1NC4xODM0IiB5PSIzODQuOTc4OSI+UmFuayBTdHVkZW50czwvdGV4dD48L2c+PGcgaWQ9ImVsZW1fQ29vcmRpbmF0ZSBUZWFjaGVycyI+PGVsbGlwc2UgY3g9IjQ5MC42MDYyIiBjeT0iNDcwLjgyMTIiIGZpbGw9IiNGMUYxRjEiIHJ4PSI4NC42MDYyIiByeT0iMTkuMzIxMiIgc3R5bGU9InN0cm9rZTojMTgxODE4O3N0cm9rZS13aWR0aDowLjU7Ii8+PHRleHQgZmlsbD0iIzAwMDAwMCIgZm9udC1mYW1pbHk9InNhbnMtc2VyaWYiIGZvbnQtc2l6ZT0iMTQiIGxlbmd0aEFkanVzdD0ic3BhY2luZyIgdGV4dExlbmd0aD0iMTMzIiB4PSI0MjQuMTA2MiIgeT0iNDc0LjU2MzQiPkNvb3JkaW5hdGUgVGVhY2hlcnM8L3RleHQ+PC9nPjxnIGlkPSJlbGVtX0Nvb3JkaW5hdGUgU3R1ZGVudHMiPjxlbGxpcHNlIGN4PSI0OTAuNjA2MiIgY3k9IjU0NC44MjEyIiBmaWxsPSIjRjFGMUYxIiByeD0iODQuNjA2MiIgcnk9IjE5LjMyMTIiIHN0eWxlPSJzdHJva2U6IzE4MTgxODtzdHJva2Utd2lkdGg6MC41OyIvPjx0ZXh0IGZpbGw9IiMwMDAwMDAiIGZvbnQtZmFtaWx5PSJzYW5zLXNlcmlmIiBmb250LXNpemU9IjE0IiBsZW5ndGhBZGp1c3Q9InNwYWNpbmciIHRleHRMZW5ndGg9IjEzMyIgeD0iNDI0LjEwNjIiIHk9IjU0OC41NjM0Ij5Db29yZGluYXRlIFN0dWRlbnRzPC90ZXh0PjwvZz48ZyBpZD0iZWxlbV9Pcmdhbml6ZSBFdmVudHMiPjxlbGxpcHNlIGN4PSI0OTAuNDY2MyIgY3k9IjYxNi44OTMzIiBmaWxsPSIjRjFGMUYxIiByeD0iNzIuNDY2MyIgcnk9IjE2Ljg5MzMiIHN0eWxlPSJzdHJva2U6IzE4MTgxODtzdHJva2Utd2lkdGg6MC41OyIvPjx0ZXh0IGZpbGw9IiMwMDAwMDAiIGZvbnQtZmFtaWx5PSJzYW5zLXNlcmlmIiBmb250LXNpemU9IjE0IiBsZW5ndGhBZGp1c3Q9InNwYWNpbmciIHRleHRMZW5ndGg9IjEwNSIgeD0iNDM3Ljk2NjMiIHk9IjYyMC42MzU1Ij5Pcmdhbml6ZSBFdmVudHM8L3RleHQ+PC9nPjxnIGlkPSJlbGVtX0NvbGxhYm9yYXRlIHdpdGggdGhlIE1hbmFnZW1lbnQiPjxlbGxpcHNlIGN4PSI0OTAuNDIzMSIgY3k9IjY5Ni43ODQ2IiBmaWxsPSIjRjFGMUYxIiByeD0iMTI0LjQyMzEiIHJ5PSIyNy4yODQ2IiBzdHlsZT0ic3Ryb2tlOiMxODE4MTg7c3Ryb2tlLXdpZHRoOjAuNTsiLz48dGV4dCBmaWxsPSIjMDAwMDAwIiBmb250LWZhbWlseT0ic2Fucy1zZXJpZiIgZm9udC1zaXplPSIxNCIgbGVuZ3RoQWRqdXN0PSJzcGFjaW5nIiB0ZXh0TGVuZ3RoPSIyMTkiIHg9IjM4MC45MjMxIiB5PSI3MDAuNTI2OCI+Q29sbGFib3JhdGUgd2l0aCB0aGUgTWFuYWdlbWVudDwvdGV4dD48L2c+PGcgaWQ9ImVsZW1fS2VlcCBSZWNvcmRzIj48ZWxsaXBzZSBjeD0iODk5LjM4NzgiIGN5PSI2OTcuMTc3NiIgZmlsbD0iI0YxRjFGMSIgcng9IjYzLjg4NzgiIHJ5PSIxNS4xNzc2IiBzdHlsZT0ic3Ryb2tlOiMxODE4MTg7c3Ryb2tlLXdpZHRoOjAuNTsiLz48dGV4dCBmaWxsPSIjMDAwMDAwIiBmb250LWZhbWlseT0ic2Fucy1zZXJpZiIgZm9udC1zaXplPSIxNCIgbGVuZ3RoQWRqdXN0PSJzcGFjaW5nIiB0ZXh0TGVuZ3RoPSI4NCIgeD0iODU3LjM4NzgiIHk9IjcwMC45MTk3Ij5LZWVwIFJlY29yZHM8L3RleHQ+PC9nPjxnIGlkPSJlbGVtX0luZm9ybSBTdHVkZW50cyBhbmQgVGVhY2hlcnMiPjxlbGxpcHNlIGN4PSI4OTkuNTExNiIgY3k9IjYxNy4yMDIzIiBmaWxsPSIjRjFGMUYxIiByeD0iMTE0LjAxMTYiIHJ5PSIyNS4yMDIzIiBzdHlsZT0ic3Ryb2tlOiMxODE4MTg7c3Ryb2tlLXdpZHRoOjAuNTsiLz48dGV4dCBmaWxsPSIjMDAwMDAwIiBmb250LWZhbWlseT0ic2Fucy1zZXJpZiIgZm9udC1zaXplPSIxNCIgbGVuZ3RoQWRqdXN0PSJzcGFjaW5nIiB0ZXh0TGVuZ3RoPSIxOTciIHg9IjgwMS4wMTE2IiB5PSI2MjAuOTQ0NSI+SW5mb3JtIFN0dWRlbnRzIGFuZCBUZWFjaGVyczwvdGV4dD48L2c+PGcgaWQ9ImVsZW1fQ29sbGVjdCBTY2hvb2wgRmVlcyBmcm9tIENsYXNzIFRlYWNoZXJzIj48ZWxsaXBzZSBjeD0iNDkwLjMyNTMiIGN5PSI3OTIuMDY1MSIgZmlsbD0iI0YxRjFGMSIgcng9IjE1MC44MjUzIiByeT0iMzIuNTY1MSIgc3R5bGU9InN0cm9rZTojMTgxODE4O3N0cm9rZS13aWR0aDowLjU7Ii8+PHRleHQgZmlsbD0iIzAwMDAwMCIgZm9udC1mYW1pbHk9InNhbnMtc2VyaWYiIGZvbnQtc2l6ZT0iMTQiIGxlbmd0aEFkanVzdD0ic3BhY2luZyIgdGV4dExlbmd0aD0iMjc0IiB4PSIzNTMuMzI1MyIgeT0iNzk1LjgwNzIiPkNvbGxlY3QgU2Nob29sIEZlZXMgZnJvbSBDbGFzcyBUZWFjaGVyczwvdGV4dD48L2c+PGcgaWQ9ImVsZW1fRGVwb3NpdCBGdW5kcyB0byBTY2hvb2wgQWNjb3VudCI+PGVsbGlwc2UgY3g9IjQ5MC40NzIzIiBjeT0iODg3LjA5NDUiIGZpbGw9IiNGMUYxRjEiIHJ4PSIxMjMuNDcyMyIgcnk9IjI3LjA5NDUiIHN0eWxlPSJzdHJva2U6IzE4MTgxODtzdHJva2Utd2lkdGg6MC41OyIvPjx0ZXh0IGZpbGw9IiMwMDAwMDAiIGZvbnQtZmFtaWx5PSJzYW5zLXNlcmlmIiBmb250LXNpemU9IjE0IiBsZW5ndGhBZGp1c3Q9InNwYWNpbmciIHRleHRMZW5ndGg9IjIxNyIgeD0iMzgxLjk3MjMiIHk9Ijg5MC44MzY2Ij5EZXBvc2l0IEZ1bmRzIHRvIFNjaG9vbCBBY2NvdW50PC90ZXh0PjwvZz48ZyBpZD0iZWxlbV9LZWVwIEZpbmFuY2lhbCBSZWNvcmRzIj48ZWxsaXBzZSBjeD0iNDkwLjU2MjIiIGN5PSI5NzAuMjEyNCIgZmlsbD0iI0YxRjFGMSIgcng9Ijk0LjA2MjIiIHJ5PSIyMS4yMTI0IiBzdHlsZT0ic3Ryb2tlOiMxODE4MTg7c3Ryb2tlLXdpZHRoOjAuNTsiLz48dGV4dCBmaWxsPSIjMDAwMDAwIiBmb250LWZhbWlseT0ic2Fucy1zZXJpZiIgZm9udC1zaXplPSIxNCIgbGVuZ3RoQWRqdXN0PSJzcGFjaW5nIiB0ZXh0TGVuZ3RoPSIxNTQiIHg9IjQxMy41NjIyIiB5PSI5NzMuOTU0NiI+S2VlcCBGaW5hbmNpYWwgUmVjb3JkczwvdGV4dD48L2c+PGcgaWQ9ImVsZW1fUmVjb3JkIFRyYW5zYWN0aW9ucyI+PGVsbGlwc2UgY3g9Ijg5OS42MDYyIiBjeT0iODg2LjgyMTIiIGZpbGw9IiNGMUYxRjEiIHJ4PSI4NC42MDYyIiByeT0iMTkuMzIxMiIgc3R5bGU9InN0cm9rZTojMTgxODE4O3N0cm9rZS13aWR0aDowLjU7Ii8+PHRleHQgZmlsbD0iIzAwMDAwMCIgZm9udC1mYW1pbHk9InNhbnMtc2VyaWYiIGZvbnQtc2l6ZT0iMTQiIGxlbmd0aEFkanVzdD0ic3BhY2luZyIgdGV4dExlbmd0aD0iMTMzIiB4PSI4MzMuMTA2MiIgeT0iODkwLjU2MzQiPlJlY29yZCBUcmFuc2FjdGlvbnM8L3RleHQ+PC9nPjxnIGlkPSJlbGVtX0NyZWF0ZSBDbHVicyBhbmQgU29jaWV0aWVzIj48ZWxsaXBzZSBjeD0iNDkwLjQ4MjMiIGN5PSIxODE0Ljc5NjUiIGZpbGw9IiNGMUYxRjEiIHJ4PSIxMDYuOTgyMyIgcnk9IjIzLjc5NjUiIHN0eWxlPSJzdHJva2U6IzE4MTgxODtzdHJva2Utd2lkdGg6MC41OyIvPjx0ZXh0IGZpbGw9IiMwMDAwMDAiIGZvbnQtZmFtaWx5PSJzYW5zLXNlcmlmIiBmb250LXNpemU9IjE0IiBsZW5ndGhBZGp1c3Q9InNwYWNpbmciIHRleHRMZW5ndGg9IjE4MiIgeD0iMzk5LjQ4MjMiIHk9IjE4MTguNTM4NyI+Q3JlYXRlIENsdWJzIGFuZCBTb2NpZXRpZXM8L3RleHQ+PC9nPjxnIGlkPSJlbGVtX1BheSBTY2hvb2wgRmVlcyI+PGVsbGlwc2UgY3g9IjQ5MC40NjYzIiBjeT0iMTg5MC44OTMzIiBmaWxsPSIjRjFGMUYxIiByeD0iNzIuNDY2MyIgcnk9IjE2Ljg5MzMiIHN0eWxlPSJzdHJva2U6IzE4MTgxODtzdHJva2Utd2lkdGg6MC41OyIvPjx0ZXh0IGZpbGw9IiMwMDAwMDAiIGZvbnQtZmFtaWx5PSJzYW5zLXNlcmlmIiBmb250LXNpemU9IjE0IiBsZW5ndGhBZGp1c3Q9InNwYWNpbmciIHRleHRMZW5ndGg9IjEwNSIgeD0iNDM3Ljk2NjMiIHk9IjE4OTQuNjM1NSI+UGF5IFNjaG9vbCBGZWVzPC90ZXh0PjwvZz48ZyBpZD0iZWxlbV9BZGQgTWVtYmVycyI+PGVsbGlwc2UgY3g9Ijg5OS41NTE5IiBjeT0iMTgwNy4yMTA0IiBmaWxsPSIjRjFGMUYxIiByeD0iNjEuNTUxOSIgcnk9IjE0LjcxMDQiIHN0eWxlPSJzdHJva2U6IzE4MTgxODtzdHJva2Utd2lkdGg6MC41OyIvPjx0ZXh0IGZpbGw9IiMwMDAwMDAiIGZvbnQtZmFtaWx5PSJzYW5zLXNlcmlmIiBmb250LXNpemU9IjE0IiBsZW5ndGhBZGp1c3Q9InNwYWNpbmciIHRleHRMZW5ndGg9Ijc4IiB4PSI4NjAuNTUxOSIgeT0iMTgxMC45NTI2Ij5BZGQgTWVtYmVyczwvdGV4dD48L2c+PGcgaWQ9ImVsZW1fSW5mb3JtIE1lbWJlcnMiPjxlbGxpcHNlIGN4PSI4OTkuMzc0NSIgY3k9IjE4NzIuOTc0OSIgZmlsbD0iI0YxRjFGMSIgcng9IjcwLjM3NDUiIHJ5PSIxNi40NzQ5IiBzdHlsZT0ic3Ryb2tlOiMxODE4MTg7c3Ryb2tlLXdpZHRoOjAuNTsiLz48dGV4dCBmaWxsPSIjMDAwMDAwIiBmb250LWZhbWlseT0ic2Fucy1zZXJpZiIgZm9udC1zaXplPSIxNCIgbGVuZ3RoQWRqdXN0PSJzcGFjaW5nIiB0ZXh0TGVuZ3RoPSIxMDAiIHg9Ijg0OS4zNzQ1IiB5PSIxODc2LjcxNzEiPkluZm9ybSBNZW1iZXJzPC90ZXh0PjwvZz48ZyBpZD0iZWxlbV9Bc3Npc3QgaW4gU3R1ZGVudCBEaXNjaXBsaW5lIj48ZWxsaXBzZSBjeD0iNDkwLjU0MSIgY3k9IjE2NTIuMTA4MiIgZmlsbD0iI0YxRjFGMSIgcng9IjExMy41NDEiIHJ5PSIyNS4xMDgyIiBzdHlsZT0ic3Ryb2tlOiMxODE4MTg7c3Ryb2tlLXdpZHRoOjAuNTsiLz48dGV4dCBmaWxsPSIjMDAwMDAwIiBmb250LWZhbWlseT0ic2Fucy1zZXJpZiIgZm9udC1zaXplPSIxNCIgbGVuZ3RoQWRqdXN0PSJzcGFjaW5nIiB0ZXh0TGVuZ3RoPSIxOTYiIHg9IjM5Mi41NDEiIHk9IjE2NTUuODUwNCI+QXNzaXN0IGluIFN0dWRlbnQgRGlzY2lwbGluZTwvdGV4dD48L2c+PGcgaWQ9ImVsZW1fT3JnYW5pemUgU3R1ZGVudCBFdmVudHMiPjxlbGxpcHNlIGN4PSI0OTAuMjYzMyIgY3k9IjE3MzMuODUyNyIgZmlsbD0iI0YxRjFGMSIgcng9Ijk3LjI2MzMiIHJ5PSIyMS44NTI3IiBzdHlsZT0ic3Ryb2tlOiMxODE4MTg7c3Ryb2tlLXdpZHRoOjAuNTsiLz48dGV4dCBmaWxsPSIjMDAwMDAwIiBmb250LWZhbWlseT0ic2Fucy1zZXJpZiIgZm9udC1zaXplPSIxNCIgbGVuZ3RoQWRqdXN0PSJzcGFjaW5nIiB0ZXh0TGVuZ3RoPSIxNjEiIHg9IjQwOS43NjMzIiB5PSIxNzM3LjU5NDgiPk9yZ2FuaXplIFN0dWRlbnQgRXZlbnRzPC90ZXh0PjwvZz48ZyBpZD0iZWxlbV9SZXBvcnQgTWlzY29uZHVjdHMiPjxlbGxpcHNlIGN4PSI4OTkuNTEzMiIgY3k9IjE2NTIuMjAyNiIgZmlsbD0iI0YxRjFGMSIgcng9IjgxLjUxMzIiIHJ5PSIxOC43MDI2IiBzdHlsZT0ic3Ryb2tlOiMxODE4MTg7c3Ryb2tlLXdpZHRoOjAuNTsiLz48dGV4dCBmaWxsPSIjMDAwMDAwIiBmb250LWZhbWlseT0ic2Fucy1zZXJpZiIgZm9udC1zaXplPSIxNCIgbGVuZ3RoQWRqdXN0PSJzcGFjaW5nIiB0ZXh0TGVuZ3RoPSIxMjYiIHg9IjgzNi41MTMyIiB5PSIxNjU1Ljk0NDgiPlJlcG9ydCBNaXNjb25kdWN0czwvdGV4dD48L2c+PGcgaWQ9ImVsZW1fSW5mb3JtIFN0dWRlbnRzIj48ZWxsaXBzZSBjeD0iODk5LjM4NzkiIGN5PSIxNzMzLjk3NzYiIGZpbGw9IiNGMUYxRjEiIHJ4PSI3Mi44ODc5IiByeT0iMTYuOTc3NiIgc3R5bGU9InN0cm9rZTojMTgxODE4O3N0cm9rZS13aWR0aDowLjU7Ii8+PHRleHQgZmlsbD0iIzAwMDAwMCIgZm9udC1mYW1pbHk9InNhbnMtc2VyaWYiIGZvbnQtc2l6ZT0iMTQiIGxlbmd0aEFkanVzdD0ic3BhY2luZyIgdGV4dExlbmd0aD0iMTA2IiB4PSI4NDYuMzg3OSIgeT0iMTczNy43MTk4Ij5JbmZvcm0gU3R1ZGVudHM8L3RleHQ+PC9nPjxnIGlkPSJlbGVtX092ZXJhbGwgU2Nob29sIE1hbmFnZW1lbnQiPjxlbGxpcHNlIGN4PSI0OTAuNjg5NSIgY3k9IjE5NjYuMjM3OSIgZmlsbD0iI0YxRjFGMSIgcng9IjEwNC4xODk1IiByeT0iMjMuMjM3OSIgc3R5bGU9InN0cm9rZTojMTgxODE4O3N0cm9rZS13aWR0aDowLjU7Ii8+PHRleHQgZmlsbD0iIzAwMDAwMCIgZm9udC1mYW1pbHk9InNhbnMtc2VyaWYiIGZvbnQtc2l6ZT0iMTQiIGxlbmd0aEFkanVzdD0ic3BhY2luZyIgdGV4dExlbmd0aD0iMTc2IiB4PSI0MDIuNjg5NSIgeT0iMTk2OS45ODAxIj5PdmVyYWxsIFNjaG9vbCBNYW5hZ2VtZW50PC90ZXh0PjwvZz48ZyBpZD0iZWxlbV9Pcmdhbml6ZSBTcGVjaWFsIEV2ZW50cyI+PGVsbGlwc2UgY3g9IjQ5MC4yNjMzIiBjeT0iMjA0NS44NTI3IiBmaWxsPSIjRjFGMUYxIiByeD0iOTcuMjYzMyIgcnk9IjIxLjg1MjciIHN0eWxlPSJzdHJva2U6IzE4MTgxODtzdHJva2Utd2lkdGg6MC41OyIvPjx0ZXh0IGZpbGw9IiMwMDAwMDAiIGZvbnQtZmFtaWx5PSJzYW5zLXNlcmlmIiBmb250LXNpemU9IjE0IiBsZW5ndGhBZGp1c3Q9InNwYWNpbmciIHRleHRMZW5ndGg9IjE2MSIgeD0iNDA5Ljc2MzMiIHk9IjIwNDkuNTk0OCI+T3JnYW5pemUgU3BlY2lhbCBFdmVudHM8L3RleHQ+PC9nPjxnIGlkPSJlbGVtX1Rha2UgSW1wb3J0YW50IERlY2lzaW9ucyI+PGVsbGlwc2UgY3g9IjQ5MC40NDY4IiBjeT0iMjEyNi4wODk0IiBmaWxsPSIjRjFGMUYxIiByeD0iMTAwLjk0NjgiIHJ5PSIyMi41ODk0IiBzdHlsZT0ic3Ryb2tlOiMxODE4MTg7c3Ryb2tlLXdpZHRoOjAuNTsiLz48dGV4dCBmaWxsPSIjMDAwMDAwIiBmb250LWZhbWlseT0ic2Fucy1zZXJpZiIgZm9udC1zaXplPSIxNCIgbGVuZ3RoQWRqdXN0PSJzcGFjaW5nIiB0ZXh0TGVuZ3RoPSIxNjkiIHg9IjQwNS45NDY4IiB5PSIyMTI5LjgzMTUiPlRha2UgSW1wb3J0YW50IERlY2lzaW9uczwvdGV4dD48L2c+PGcgaWQ9ImVsZW1fSW5mb3JtIHRoZSBTY2hvb2wiPjxlbGxpcHNlIGN4PSI4OTkuMzkwMiIgY3k9IjIwMzkuMTc4IiBmaWxsPSIjRjFGMUYxIiByeD0iNzguODkwMiIgcnk9IjE4LjE3OCIgc3R5bGU9InN0cm9rZTojMTgxODE4O3N0cm9rZS13aWR0aDowLjU7Ii8+PHRleHQgZmlsbD0iIzAwMDAwMCIgZm9udC1mYW1pbHk9InNhbnMtc2VyaWYiIGZvbnQtc2l6ZT0iMTQiIGxlbmd0aEFkanVzdD0ic3BhY2luZyIgdGV4dExlbmd0aD0iMTIwIiB4PSI4MzkuMzkwMiIgeT0iMjA0Mi45MjAyIj5JbmZvcm0gdGhlIFNjaG9vbDwvdGV4dD48L2c+PGcgaWQ9ImVsZW1fQ29sbGFib3JhdGUgd2l0aCBUaGUgU3RhZmYiPjxlbGxpcHNlIGN4PSI4OTkuNDQ4OSIgY3k9IjIxMTUuODg5OCIgZmlsbD0iI0YxRjFGMSIgcng9IjEwNy40NDg5IiByeT0iMjMuODg5OCIgc3R5bGU9InN0cm9rZTojMTgxODE4O3N0cm9rZS13aWR0aDowLjU7Ii8+PHRleHQgZmlsbD0iIzAwMDAwMCIgZm9udC1mYW1pbHk9InNhbnMtc2VyaWYiIGZvbnQtc2l6ZT0iMTQiIGxlbmd0aEFkanVzdD0ic3BhY2luZyIgdGV4dExlbmd0aD0iMTgzIiB4PSI4MDcuOTQ4OSIgeT0iMjExOS42MzIiPkNvbGxhYm9yYXRlIHdpdGggVGhlIFN0YWZmPC90ZXh0PjwvZz48ZyBpZD0iZWxlbV9TZXQgU2Nob29sIFBvbGljaWVzIj48ZWxsaXBzZSBjeD0iODk5LjYwNjIiIGN5PSIxOTY1LjgyMTIiIGZpbGw9IiNGMUYxRjEiIHJ4PSI4NC42MDYyIiByeT0iMTkuMzIxMiIgc3R5bGU9InN0cm9rZTojMTgxODE4O3N0cm9rZS13aWR0aDowLjU7Ii8+PHRleHQgZmlsbD0iIzAwMDAwMCIgZm9udC1mYW1pbHk9InNhbnMtc2VyaWYiIGZvbnQtc2l6ZT0iMTQiIGxlbmd0aEFkanVzdD0ic3BhY2luZyIgdGV4dExlbmd0aD0iMTMzIiB4PSI4MzMuMTA2MiIgeT0iMTk2OS41NjM0Ij5TZXQgU2Nob29sIFBvbGljaWVzPC90ZXh0PjwvZz48ZyBpZD0iZWxlbV9Bc3Npc3QgUHJpbmNpcGFsIj48ZWxsaXBzZSBjeD0iNDkwLjQzODQiIGN5PSIyMjAwLjk4NzciIGZpbGw9IiNGMUYxRjEiIHJ4PSI3NS40Mzg0IiByeT0iMTcuNDg3NyIgc3R5bGU9InN0cm9rZTojMTgxODE4O3N0cm9rZS13aWR0aDowLjU7Ii8+PHRleHQgZmlsbD0iIzAwMDAwMCIgZm9udC1mYW1pbHk9InNhbnMtc2VyaWYiIGZvbnQtc2l6ZT0iMTQiIGxlbmd0aEFkanVzdD0ic3BhY2luZyIgdGV4dExlbmd0aD0iMTEyIiB4PSI0MzQuNDM4NCIgeT0iMjIwNC43Mjk5Ij5Bc3Npc3QgUHJpbmNpcGFsPC90ZXh0PjwvZz48ZyBpZD0iZWxlbV9Db29yZGluYXRlIFNjaG9vbCBNYW5hZ2VtZW50Ij48ZWxsaXBzZSBjeD0iNDkwLjUxMTYiIGN5PSIyMjc5LjIwMjMiIGZpbGw9IiNGMUYxRjEiIHJ4PSIxMTQuMDExNiIgcnk9IjI1LjIwMjMiIHN0eWxlPSJzdHJva2U6IzE4MTgxODtzdHJva2Utd2lkdGg6MC41OyIvPjx0ZXh0IGZpbGw9IiMwMDAwMDAiIGZvbnQtZmFtaWx5PSJzYW5zLXNlcmlmIiBmb250LXNpemU9IjE0IiBsZW5ndGhBZGp1c3Q9InNwYWNpbmciIHRleHRMZW5ndGg9IjE5NyIgeD0iMzkyLjAxMTYiIHk9IjIyODIuOTQ0NSI+Q29vcmRpbmF0ZSBTY2hvb2wgTWFuYWdlbWVudDwvdGV4dD48L2c+PGcgaWQ9ImVsZW1fSXNzdWVpbmcgQ2hlcXVlcyI+PGVsbGlwc2UgY3g9IjQ5MC40Mzg0IiBjeT0iMjM1Ni45ODc3IiBmaWxsPSIjRjFGMUYxIiByeD0iNzUuNDM4NCIgcnk9IjE3LjQ4NzciIHN0eWxlPSJzdHJva2U6IzE4MTgxODtzdHJva2Utd2lkdGg6MC41OyIvPjx0ZXh0IGZpbGw9IiMwMDAwMDAiIGZvbnQtZmFtaWx5PSJzYW5zLXNlcmlmIiBmb250LXNpemU9IjE0IiBsZW5ndGhBZGp1c3Q9InNwYWNpbmciIHRleHRMZW5ndGg9IjExMiIgeD0iNDM0LjQzODQiIHk9IjIzNjAuNzI5OSI+SXNzdWVpbmcgQ2hlcXVlczwvdGV4dD48L2c+PGcgaWQ9ImVsZW1fQ29sbGVjdCBGdW5kcyBmb3IgRGV2ZWxvcG1lbnQiPjxlbGxpcHNlIGN4PSI0OTAuMzEyNCIgY3k9IjI0MzUuODYyNSIgZmlsbD0iI0YxRjFGMSIgcng9IjExNy4zMTI0IiByeT0iMjUuODYyNSIgc3R5bGU9InN0cm9rZTojMTgxODE4O3N0cm9rZS13aWR0aDowLjU7Ii8+PHRleHQgZmlsbD0iIzAwMDAwMCIgZm9udC1mYW1pbHk9InNhbnMtc2VyaWYiIGZvbnQtc2l6ZT0iMTQiIGxlbmd0aEFkanVzdD0ic3BhY2luZyIgdGV4dExlbmd0aD0iMjA0IiB4PSIzODguMzEyNCIgeT0iMjQzOS42MDQ3Ij5Db2xsZWN0IEZ1bmRzIGZvciBEZXZlbG9wbWVudDwvdGV4dD48L2c+PGcgaWQ9ImVsZW1fUmVnaXN0ZXIgTmV3IFN0dWRlbnRzIj48ZWxsaXBzZSBjeD0iNDkwLjMzNjQiIGN5PSIyNTE4LjE2NzMiIGZpbGw9IiNGMUYxRjEiIHJ4PSI5MS4zMzY0IiByeT0iMjAuNjY3MyIgc3R5bGU9InN0cm9rZTojMTgxODE4O3N0cm9rZS13aWR0aDowLjU7Ii8+PHRleHQgZmlsbD0iIzAwMDAwMCIgZm9udC1mYW1pbHk9InNhbnMtc2VyaWYiIGZvbnQtc2l6ZT0iMTQiIGxlbmd0aEFkanVzdD0ic3BhY2luZyIgdGV4dExlbmd0aD0iMTQ4IiB4PSI0MTYuMzM2NCIgeT0iMjUyMS45MDk1Ij5SZWdpc3RlciBOZXcgU3R1ZGVudHM8L3RleHQ+PC9nPjxnIGlkPSJlbGVtX0dlbmVyYXRlIFN0dWRlbnQgTGVhdmluZyBDZXJ0aWZpY2F0ZXMiPjxlbGxpcHNlIGN4PSI0OTAuNTgzIiBjeT0iMjYwNS4xMTY2IiBmaWxsPSIjRjFGMUYxIiByeD0iMTQzLjU4MyIgcnk9IjMxLjExNjYiIHN0eWxlPSJzdHJva2U6IzE4MTgxODtzdHJva2Utd2lkdGg6MC41OyIvPjx0ZXh0IGZpbGw9IiMwMDAwMDAiIGZvbnQtZmFtaWx5PSJzYW5zLXNlcmlmIiBmb250LXNpemU9IjE0IiBsZW5ndGhBZGp1c3Q9InNwYWNpbmciIHRleHRMZW5ndGg9IjI1OSIgeD0iMzYxLjA4MyIgeT0iMjYwOC44NTg4Ij5HZW5lcmF0ZSBTdHVkZW50IExlYXZpbmcgQ2VydGlmaWNhdGVzPC90ZXh0PjwvZz48ZyBpZD0iZWxlbV9VcGRhdGUgTG9ncyBhbmQgUmVjb3JkcyI+PGVsbGlwc2UgY3g9Ijg5OS4yNjMzIiBjeT0iMjU2My44NTI3IiBmaWxsPSIjRjFGMUYxIiByeD0iOTcuMjYzMyIgcnk9IjIxLjg1MjciIHN0eWxlPSJzdHJva2U6IzE4MTgxODtzdHJva2Utd2lkdGg6MC41OyIvPjx0ZXh0IGZpbGw9IiMwMDAwMDAiIGZvbnQtZmFtaWx5PSJzYW5zLXNlcmlmIiBmb250LXNpemU9IjE0IiBsZW5ndGhBZGp1c3Q9InNwYWNpbmciIHRleHRMZW5ndGg9IjE2MSIgeD0iODE4Ljc2MzMiIHk9IjI1NjcuNTk0OCI+VXBkYXRlIExvZ3MgYW5kIFJlY29yZHM8L3RleHQ+PC9nPjxnIGlkPSJlbGVtX0hhbmRsZSBBZG1pbmlzdHJhdGl2ZSBUYXNrcyI+PGVsbGlwc2UgY3g9Ijg5OS43MjM0IiBjeT0iMjIwMC4wNDQ3IiBmaWxsPSIjRjFGMUYxIiByeD0iMTEwLjcyMzQiIHJ5PSIyNC41NDQ3IiBzdHlsZT0ic3Ryb2tlOiMxODE4MTg7c3Ryb2tlLXdpZHRoOjAuNTsiLz48dGV4dCBmaWxsPSIjMDAwMDAwIiBmb250LWZhbWlseT0ic2Fucy1zZXJpZiIgZm9udC1zaXplPSIxNCIgbGVuZ3RoQWRqdXN0PSJzcGFjaW5nIiB0ZXh0TGVuZ3RoPSIxOTAiIHg9IjgwNC43MjM0IiB5PSIyMjAzLjc4NjkiPkhhbmRsZSBBZG1pbmlzdHJhdGl2ZSBUYXNrczwvdGV4dD48L2c+PGcgaWQ9ImVsZW1fS2VlcCBNYW5hZ2VtZW50IFJlY29yZHMiPjxlbGxpcHNlIGN4PSI4OTkuNzIyMyIgY3k9IjIyODEuOTQ0NSIgZmlsbD0iI0YxRjFGMSIgcng9Ijk3LjcyMjMiIHJ5PSIyMS45NDQ1IiBzdHlsZT0ic3Ryb2tlOiMxODE4MTg7c3Ryb2tlLXdpZHRoOjAuNTsiLz48dGV4dCBmaWxsPSIjMDAwMDAwIiBmb250LWZhbWlseT0ic2Fucy1zZXJpZiIgZm9udC1zaXplPSIxNCIgbGVuZ3RoQWRqdXN0PSJzcGFjaW5nIiB0ZXh0TGVuZ3RoPSIxNjIiIHg9IjgxOC43MjIzIiB5PSIyMjg1LjY4NjciPktlZXAgTWFuYWdlbWVudCBSZWNvcmRzPC90ZXh0PjwvZz48ZyBpZD0iZWxlbV9Db2xsYWJvcmF0ZSB3aXRoIFRyZWFzdXJlciI+PGVsbGlwc2UgY3g9Ijg5OS40NDg5IiBjeT0iMjQ1MS44ODk4IiBmaWxsPSIjRjFGMUYxIiByeD0iMTA3LjQ0ODkiIHJ5PSIyMy44ODk4IiBzdHlsZT0ic3Ryb2tlOiMxODE4MTg7c3Ryb2tlLXdpZHRoOjAuNTsiLz48dGV4dCBmaWxsPSIjMDAwMDAwIiBmb250LWZhbWlseT0ic2Fucy1zZXJpZiIgZm9udC1zaXplPSIxNCIgbGVuZ3RoQWRqdXN0PSJzcGFjaW5nIiB0ZXh0TGVuZ3RoPSIxODMiIHg9IjgwNy45NDg5IiB5PSIyNDU1LjYzMiI+Q29sbGFib3JhdGUgd2l0aCBUcmVhc3VyZXI8L3RleHQ+PC9nPjxnIGlkPSJlbGVtX0NvbGxhYm9yYXRlIHdpdGggVGhlIFRyZWFzdXJlciI+PGVsbGlwc2UgY3g9Ijg5OS42MjQ3IiBjeT0iMjM2Ni4wMjQ5IiBmaWxsPSIjRjFGMUYxIiByeD0iMTIwLjYyNDciIHJ5PSIyNi41MjQ5IiBzdHlsZT0ic3Ryb2tlOiMxODE4MTg7c3Ryb2tlLXdpZHRoOjAuNTsiLz48dGV4dCBmaWxsPSIjMDAwMDAwIiBmb250LWZhbWlseT0ic2Fucy1zZXJpZiIgZm9udC1zaXplPSIxNCIgbGVuZ3RoQWRqdXN0PSJzcGFjaW5nIiB0ZXh0TGVuZ3RoPSIyMTEiIHg9Ijc5NC4xMjQ3IiB5PSIyMzY5Ljc2NzEiPkNvbGxhYm9yYXRlIHdpdGggVGhlIFRyZWFzdXJlcjwvdGV4dD48L2c+PCEtLWVudGl0eSBULS0+PGcgaWQ9ImVsZW1fVCI+PGVsbGlwc2UgY3g9IjU1IiBjeT0iMTE1NCIgZmlsbD0iI0YxRjFGMSIgcng9IjgiIHJ5PSI4IiBzdHlsZT0ic3Ryb2tlOiMxODE4MTg7c3Ryb2tlLXdpZHRoOjAuNTsiLz48cGF0aCBkPSJNNTUsMTE2MiBMNTUsMTE4OSBNNDIsMTE3MCBMNjgsMTE3MCBNNTUsMTE4OSBMNDIsMTIwNCBNNTUsMTE4OSBMNjgsMTIwNCAiIGZpbGw9Im5vbmUiIHN0eWxlPSJzdHJva2U6IzE4MTgxODtzdHJva2Utd2lkdGg6MC41OyIvPjx0ZXh0IGZpbGw9IiMwMDAwMDAiIGZvbnQtZmFtaWx5PSJzYW5zLXNlcmlmIiBmb250LXNpemU9IjE0IiBsZW5ndGhBZGp1c3Q9InNwYWNpbmciIHRleHRMZW5ndGg9IjQ5IiB4PSIzMC41IiB5PSIxMjE4LjczNDQiPlRlYWNoZXI8L3RleHQ+PC9nPjwhLS1lbnRpdHkgQ1QtLT48ZyBpZD0iZWxlbV9DVCI+PGVsbGlwc2UgY3g9IjIxNCIgY3k9IjIyNiIgZmlsbD0iI0YxRjFGMSIgcng9IjgiIHJ5PSI4IiBzdHlsZT0ic3Ryb2tlOiMxODE4MTg7c3Ryb2tlLXdpZHRoOjAuNTsiLz48cGF0aCBkPSJNMjE0LDIzNCBMMjE0LDI2MSBNMjAxLDI0MiBMMjI3LDI0MiBNMjE0LDI2MSBMMjAxLDI3NiBNMjE0LDI2MSBMMjI3LDI3NiAiIGZpbGw9Im5vbmUiIHN0eWxlPSJzdHJva2U6IzE4MTgxODtzdHJva2Utd2lkdGg6MC41OyIvPjx0ZXh0IGZpbGw9IiMwMDAwMDAiIGZvbnQtZmFtaWx5PSJzYW5zLXNlcmlmIiBmb250LXNpemU9IjE0IiBsZW5ndGhBZGp1c3Q9InNwYWNpbmciIHRleHRMZW5ndGg9IjkxIiB4PSIxNjguNSIgeT0iMjkwLjczNDQiPkNsYXNzIFRlYWNoZXI8L3RleHQ+PC9nPjwhLS1lbnRpdHkgU0gtLT48ZyBpZD0iZWxlbV9TSCI+PGVsbGlwc2UgY3g9IjIxNCIgY3k9IjU4OCIgZmlsbD0iI0YxRjFGMSIgcng9IjgiIHJ5PSI4IiBzdHlsZT0ic3Ryb2tlOiMxODE4MTg7c3Ryb2tlLXdpZHRoOjAuNTsiLz48cGF0aCBkPSJNMjE0LDU5NiBMMjE0LDYyMyBNMjAxLDYwNCBMMjI3LDYwNCBNMjE0LDYyMyBMMjAxLDYzOCBNMjE0LDYyMyBMMjI3LDYzOCAiIGZpbGw9Im5vbmUiIHN0eWxlPSJzdHJva2U6IzE4MTgxODtzdHJva2Utd2lkdGg6MC41OyIvPjx0ZXh0IGZpbGw9IiMwMDAwMDAiIGZvbnQtZmFtaWx5PSJzYW5zLXNlcmlmIiBmb250LXNpemU9IjE0IiBsZW5ndGhBZGp1c3Q9InNwYWNpbmciIHRleHRMZW5ndGg9Ijk4IiB4PSIxNjUiIHk9IjY1Mi43MzQ0Ij5TZWN0aW9uYWwgSGVhZDwvdGV4dD48L2c+PCEtLWVudGl0eSBUUi0tPjxnIGlkPSJlbGVtX1RSIj48ZWxsaXBzZSBjeD0iMjE0IiBjeT0iODk3IiBmaWxsPSIjRjFGMUYxIiByeD0iOCIgcnk9IjgiIHN0eWxlPSJzdHJva2U6IzE4MTgxODtzdHJva2Utd2lkdGg6MC41OyIvPjxwYXRoIGQ9Ik0yMTQsOTA1IEwyMTQsOTMyIE0yMDEsOTEzIEwyMjcsOTEzIE0yMTQsOTMyIEwyMDEsOTQ3IE0yMTQsOTMyIEwyMjcsOTQ3ICIgZmlsbD0ibm9uZSIgc3R5bGU9InN0cm9rZTojMTgxODE4O3N0cm9rZS13aWR0aDowLjU7Ii8+PHRleHQgZmlsbD0iIzAwMDAwMCIgZm9udC1mYW1pbHk9InNhbnMtc2VyaWYiIGZvbnQtc2l6ZT0iMTQiIGxlbmd0aEFkanVzdD0ic3BhY2luZyIgdGV4dExlbmd0aD0iNjMiIHg9IjE4Mi41IiB5PSI5NjEuNzM0NCI+VHJlYXN1cmVyPC90ZXh0PjwvZz48IS0tZW50aXR5IFMtLT48ZyBpZD0iZWxlbV9TIj48ZWxsaXBzZSBjeD0iNTUiIGN5PSIxNzg4IiBmaWxsPSIjRjFGMUYxIiByeD0iOCIgcnk9IjgiIHN0eWxlPSJzdHJva2U6IzE4MTgxODtzdHJva2Utd2lkdGg6MC41OyIvPjxwYXRoIGQ9Ik01NSwxNzk2IEw1NSwxODIzIE00MiwxODA0IEw2OCwxODA0IE01NSwxODIzIEw0MiwxODM4IE01NSwxODIzIEw2OCwxODM4ICIgZmlsbD0ibm9uZSIgc3R5bGU9InN0cm9rZTojMTgxODE4O3N0cm9rZS13aWR0aDowLjU7Ii8+PHRleHQgZmlsbD0iIzAwMDAwMCIgZm9udC1mYW1pbHk9InNhbnMtc2VyaWYiIGZvbnQtc2l6ZT0iMTQiIGxlbmd0aEFkanVzdD0ic3BhY2luZyIgdGV4dExlbmd0aD0iNDkiIHg9IjMwLjUiIHk9IjE4NTIuNzM0NCI+U3R1ZGVudDwvdGV4dD48L2c+PCEtLWVudGl0eSBTUC0tPjxnIGlkPSJlbGVtX1NQIj48ZWxsaXBzZSBjeD0iMjE0IiBjeT0iMTY5NyIgZmlsbD0iI0YxRjFGMSIgcng9IjgiIHJ5PSI4IiBzdHlsZT0ic3Ryb2tlOiMxODE4MTg7c3Ryb2tlLXdpZHRoOjAuNTsiLz48cGF0aCBkPSJNMjE0LDE3MDUgTDIxNCwxNzMyIE0yMDEsMTcxMyBMMjI3LDE3MTMgTTIxNCwxNzMyIEwyMDEsMTc0NyBNMjE0LDE3MzIgTDIyNywxNzQ3ICIgZmlsbD0ibm9uZSIgc3R5bGU9InN0cm9rZTojMTgxODE4O3N0cm9rZS13aWR0aDowLjU7Ii8+PHRleHQgZmlsbD0iIzAwMDAwMCIgZm9udC1mYW1pbHk9InNhbnMtc2VyaWYiIGZvbnQtc2l6ZT0iMTQiIGxlbmd0aEFkanVzdD0ic3BhY2luZyIgdGV4dExlbmd0aD0iNTYiIHg9IjE4NiIgeT0iMTc2MS43MzQ0Ij5QcmVmZWN0czwvdGV4dD48L2c+PCEtLWVudGl0eSBQLS0+PGcgaWQ9ImVsZW1fUCI+PGVsbGlwc2UgY3g9IjIxNCIgY3k9IjIwNTUiIGZpbGw9IiNGMUYxRjEiIHJ4PSI4IiByeT0iOCIgc3R5bGU9InN0cm9rZTojMTgxODE4O3N0cm9rZS13aWR0aDowLjU7Ii8+PHBhdGggZD0iTTIxNCwyMDYzIEwyMTQsMjA5MCBNMjAxLDIwNzEgTDIyNywyMDcxIE0yMTQsMjA5MCBMMjAxLDIxMDUgTTIxNCwyMDkwIEwyMjcsMjEwNSAiIGZpbGw9Im5vbmUiIHN0eWxlPSJzdHJva2U6IzE4MTgxODtzdHJva2Utd2lkdGg6MC41OyIvPjx0ZXh0IGZpbGw9IiMwMDAwMDAiIGZvbnQtZmFtaWx5PSJzYW5zLXNlcmlmIiBmb250LXNpemU9IjE0IiBsZW5ndGhBZGp1c3Q9InNwYWNpbmciIHRleHRMZW5ndGg9IjYzIiB4PSIxODIuNSIgeT0iMjExOS43MzQ0Ij5QcmluY2lwYWw8L3RleHQ+PC9nPjwhLS1lbnRpdHkgVlAtLT48ZyBpZD0iZWxlbV9WUCI+PGVsbGlwc2UgY3g9IjU1IiBjeT0iMjMyOCIgZmlsbD0iI0YxRjFGMSIgcng9IjgiIHJ5PSI4IiBzdHlsZT0ic3Ryb2tlOiMxODE4MTg7c3Ryb2tlLXdpZHRoOjAuNTsiLz48cGF0aCBkPSJNNTUsMjMzNiBMNTUsMjM2MyBNNDIsMjM0NCBMNjgsMjM0NCBNNTUsMjM2MyBMNDIsMjM3OCBNNTUsMjM2MyBMNjgsMjM3OCAiIGZpbGw9Im5vbmUiIHN0eWxlPSJzdHJva2U6IzE4MTgxODtzdHJva2Utd2lkdGg6MC41OyIvPjx0ZXh0IGZpbGw9IiMwMDAwMDAiIGZvbnQtZmFtaWx5PSJzYW5zLXNlcmlmIiBmb250LXNpemU9IjE0IiBsZW5ndGhBZGp1c3Q9InNwYWNpbmciIHRleHRMZW5ndGg9Ijk4IiB4PSI2IiB5PSIyMzkyLjczNDQiPlZpY2UgUHJpbmNpcGFsPC90ZXh0PjwvZz48IS0tcmV2ZXJzZSBsaW5rIFQgdG8gQ1QtLT48ZyBpZD0ibGlua19UX0NUIj48cGF0aCBkPSJNNjUuMzUyMywxMTI3LjcyMjEgQzkwLjY2MjMsOTc4LjEwMjEgMTgxLjI0LDQ0Mi43NCAyMDYuNjIsMjkyLjc0ICIgZmlsbD0ibm9uZSIgaWQ9IlQtYmFja3RvLUNUIiBzdHlsZT0ic3Ryb2tlOiMxODE4MTg7c3Ryb2tlLXdpZHRoOjEuMDsiLz48cG9seWdvbiBmaWxsPSJub25lIiBwb2ludHM9IjYyLjM1LDExNDUuNDcsNzEuMjY4MiwxMTI4LjcyMjksNTkuNDM2MywxMTI2LjcyMTQsNjIuMzUsMTE0NS40NyIgc3R5bGU9InN0cm9rZTojMTgxODE4O3N0cm9rZS13aWR0aDoxLjA7Ii8+PC9nPjwhLS1yZXZlcnNlIGxpbmsgVCB0byBTSC0tPjxnIGlkPSJsaW5rX1RfU0giPjxwYXRoIGQ9Ik03MS4yMzIzLDExMjguMDc1MiBDOTkuNzYyMywxMDI1LjI0NTIgMTc0LjA2LDc1Ny4zOCAyMDIuNTgsNjU0LjU2ICIgZmlsbD0ibm9uZSIgaWQ9IlQtYmFja3RvLVNIIiBzdHlsZT0ic3Ryb2tlOiMxODE4MTg7c3Ryb2tlLXdpZHRoOjEuMDsiLz48cG9seWdvbiBmaWxsPSJub25lIiBwb2ludHM9IjY2LjQyLDExNDUuNDIsNzcuMDEzOSwxMTI5LjY3OTMsNjUuNDUwNywxMTI2LjQ3MTEsNjYuNDIsMTE0NS40MiIgc3R5bGU9InN0cm9rZTojMTgxODE4O3N0cm9rZS13aWR0aDoxLjA7Ii8+PC9nPjwhLS1yZXZlcnNlIGxpbmsgVCB0byBUUi0tPjxnIGlkPSJsaW5rX1RfVFIiPjxwYXRoIGQ9Ik04MS4wODExLDExMjguOTc0MyBDMTA0LjA4MTEsMTA3OS40NDQzIDEzNCwxMDE1IDEzNCwxMDE1IEMxMzQsMTAxNSAxNjAuMjMsOTg1LjQ1IDE4Mi40Niw5NjAuNDEgIiBmaWxsPSJub25lIiBpZD0iVC1iYWNrdG8tVFIiIHN0eWxlPSJzdHJva2U6IzE4MTgxODtzdHJva2Utd2lkdGg6MS4wOyIvPjxwb2x5Z29uIGZpbGw9Im5vbmUiIHBvaW50cz0iNzMuNSwxMTQ1LjMsODYuNTIzLDExMzEuNTAxNCw3NS42MzkyLDExMjYuNDQ3Myw3My41LDExNDUuMyIgc3R5bGU9InN0cm9rZTojMTgxODE4O3N0cm9rZS13aWR0aDoxLjA7Ii8+PC9nPjwhLS1yZXZlcnNlIGxpbmsgUyB0byBTUC0tPjxnIGlkPSJsaW5rX1NfU1AiPjxwYXRoIGQ9Ik05NS4wNzM5LDE3OTQuMzU0OSBDMTIzLjU2MzksMTc3Ny44NDQ5IDE1NS44OSwxNzU5LjEgMTg1LjksMTc0MS43MSAiIGZpbGw9Im5vbmUiIGlkPSJTLWJhY2t0by1TUCIgc3R5bGU9InN0cm9rZTojMTgxODE4O3N0cm9rZS13aWR0aDoxLjA7Ii8+PHBvbHlnb24gZmlsbD0ibm9uZSIgcG9pbnRzPSI3OS41LDE4MDMuMzgsOTguMDgyMywxNzk5LjU0NjIsOTIuMDY1NiwxNzg5LjE2MzYsNzkuNSwxODAzLjM4IiBzdHlsZT0ic3Ryb2tlOiMxODE4MTg7c3Ryb2tlLXdpZHRoOjEuMDsiLz48L2c+PCEtLXJldmVyc2UgbGluayBWUCB0byBQLS0+PGcgaWQ9ImxpbmtfVlBfUCI+PHBhdGggZD0iTTc5LjUzOTgsMjMwMi45NzgzIEMxMDIuNDA5OCwyMjUwLjQ4ODMgMTM0LDIxNzggMTM0LDIxNzggQzEzNCwyMTc4IDE2MC4yMywyMTQ2Ljc5IDE4Mi40NiwyMTIwLjM0ICIgZmlsbD0ibm9uZSIgaWQ9IlZQLWJhY2t0by1QIiBzdHlsZT0ic3Ryb2tlOiMxODE4MTg7c3Ryb2tlLXdpZHRoOjEuMDsiLz48cG9seWdvbiBmaWxsPSJub25lIiBwb2ludHM9IjcyLjM1LDIzMTkuNDgsODUuMDQwNCwyMzA1LjM3NDksNzQuMDM5MywyMzAwLjU4MTcsNzIuMzUsMjMxOS40OCIgc3R5bGU9InN0cm9rZTojMTgxODE4O3N0cm9rZS13aWR0aDoxLjA7Ii8+PC9nPjwhLS1saW5rIFQgdG8gUmVwb3J0IER1dHktLT48ZyBpZD0ibGlua19UX1JlcG9ydCBEdXR5Ij48cGF0aCBkPSJNNzkuODMsMTE2Ny4xMiBDMTAyLjc2LDExNTEuODIgMTM0LDExMzEgMTM0LDExMzEgQzEzNCwxMTMxIDE2NSwxMTIwIDE2NSwxMTIwIEMxNjUsMTEyMCAzMDIsMTA3MyAzMDIsMTA3MyBDMzAyLDEwNzMgMzg0LjY4LDEwNTguODkgNDQwLjI0LDEwNDkuNDEgIiBmaWxsPSJub25lIiBpZD0iVC1SZXBvcnQgRHV0eSIgc3R5bGU9InN0cm9rZTojMTgxODE4O3N0cm9rZS13aWR0aDoxLjA7Ii8+PC9nPjwhLS1saW5rIFQgdG8gVmlldyBTY2hlZHVsZS0tPjxnIGlkPSJsaW5rX1RfVmlldyBTY2hlZHVsZSI+PHBhdGggZD0iTTc5LjgzLDExNzUuMDYgQzEwMi43NiwxMTY3LjQxIDEzNCwxMTU3IDEzNCwxMTU3IEMxMzQsMTE1NyAzMzEuODksMTEyOS4xNyA0MzIuMzgsMTExNS4wMyAiIGZpbGw9Im5vbmUiIGlkPSJULVZpZXcgU2NoZWR1bGUiIHN0eWxlPSJzdHJva2U6IzE4MTgxODtzdHJva2Utd2lkdGg6MS4wOyIvPjwvZz48IS0tbGluayBUIHRvIFByZXBhcmUgRXhhbSBQYXBlcnMtLT48ZyBpZD0ibGlua19UX1ByZXBhcmUgRXhhbSBQYXBlcnMiPjxwYXRoIGQ9Ik03OS42MSwxMTgyLjczIEMxNDAuMzEsMTE4Mi4wMyAzMDQuMDUsMTE4MC4xNCA0MDUuMjYsMTE3OC45NyAiIGZpbGw9Im5vbmUiIGlkPSJULVByZXBhcmUgRXhhbSBQYXBlcnMiIHN0eWxlPSJzdHJva2U6IzE4MTgxODtzdHJva2Utd2lkdGg6MS4wOyIvPjwvZz48IS0tbGluayBUIHRvIFJlY29yZCBMZXNzb24gUHJvZ3Jlc3MtLT48ZyBpZD0ibGlua19UX1JlY29yZCBMZXNzb24gUHJvZ3Jlc3MiPjxwYXRoIGQ9Ik03OS42MSwxMTg2Ljg3IEMxNDIuMDcsMTE5Ny4xIDMxMy42NywxMjI1LjIgNDEzLjkzLDEyNDEuNjIgIiBmaWxsPSJub25lIiBpZD0iVC1SZWNvcmQgTGVzc29uIFByb2dyZXNzIiBzdHlsZT0ic3Ryb2tlOiMxODE4MTg7c3Ryb2tlLXdpZHRoOjEuMDsiLz48L2c+PCEtLWxpbmsgVCB0byBJbnZpZ2lsYXRlIEV4YW1zLS0+PGcgaWQ9ImxpbmtfVF9JbnZpZ2lsYXRlIEV4YW1zIj48cGF0aCBkPSJNNzkuNTksMTE5My40NSBDMTQxLjE2LDEyMjAuNzMgMzAyLDEyOTIgMzAyLDEyOTIgQzMwMiwxMjkyIDM3Ni42MiwxMzA2LjMzIDQzMS43MSwxMzE2LjkxICIgZmlsbD0ibm9uZSIgaWQ9IlQtSW52aWdpbGF0ZSBFeGFtcyIgc3R5bGU9InN0cm9rZTojMTgxODE4O3N0cm9rZS13aWR0aDoxLjA7Ii8+PC9nPjwhLS1saW5rIFQgdG8gTWFyayBFeGFtIFBhcGVycy0tPjxnIGlkPSJsaW5rX1RfTWFyayBFeGFtIFBhcGVycyI+PHBhdGggZD0iTTc5LjY1LDEyMDQuNyBDMTExLjcxLDEyMzQuMTEgMTY1LDEyODMgMTY1LDEyODMgQzE2NSwxMjgzIDMwMiwxMzYzIDMwMiwxMzYzIEMzMDIsMTM2MyAzNzUuOTMsMTM3Ni44IDQzMC45NSwxMzg3LjA3ICIgZmlsbD0ibm9uZSIgaWQ9IlQtTWFyayBFeGFtIFBhcGVycyIgc3R5bGU9InN0cm9rZTojMTgxODE4O3N0cm9rZS13aWR0aDoxLjA7Ii8+PC9nPjwhLS1saW5rIFQgdG8gU3VwZXJ2aXNlIENsdWJzIGFuZCBTb2NpZXRpZXMtLT48ZyBpZD0ibGlua19UX1N1cGVydmlzZSBDbHVicyBhbmQgU29jaWV0aWVzIj48cGF0aCBkPSJNNzkuNjUsMTIxOC44IEMxMTEuNzEsMTI2Ny4zMyAxNjUsMTM0OCAxNjUsMTM0OCBDMTY1LDEzNDggMzAyLDE0MzMgMzAyLDE0MzMgQzMwMiwxNDMzIDM1OC40OCwxNDQ2LjI1IDQwOS40NCwxNDU4LjIxICIgZmlsbD0ibm9uZSIgaWQ9IlQtU3VwZXJ2aXNlIENsdWJzIGFuZCBTb2NpZXRpZXMiIHN0eWxlPSJzdHJva2U6IzE4MTgxODtzdHJva2Utd2lkdGg6MS4wOyIvPjwvZz48IS0tbGluayBUIHRvIFJlcXVlc3QgTGVhdmVzIGFuZCBTaG9ydCBMZWF2ZXMtLT48ZyBpZD0ibGlua19UX1JlcXVlc3QgTGVhdmVzIGFuZCBTaG9ydCBMZWF2ZXMiPjxwYXRoIGQ9Ik03My41MSwxMjIwLjYgQzEwNC4zMiwxMjg2Ljc0IDE2NSwxNDE3IDE2NSwxNDE3IEMxNjUsMTQxNyAzMDIsMTUyMCAzMDIsMTUyMCBDMzAyLDE1MjAgMzU2LjQ5LDE1MzMuMDggNDA2LjcxLDE1NDUuMTMgIiBmaWxsPSJub25lIiBpZD0iVC1SZXF1ZXN0IExlYXZlcyBhbmQgU2hvcnQgTGVhdmVzIiBzdHlsZT0ic3Ryb2tlOiMxODE4MTg7c3Ryb2tlLXdpZHRoOjEuMDsiLz48L2c+PCEtLWxpbmsgUmVwb3J0IER1dHkgdG8gVmVyaWZ5IFVzaW5nIEZpbmdlcnByaW50LS0+PGcgaWQ9ImxpbmtfUmVwb3J0IER1dHlfVmVyaWZ5IFVzaW5nIEZpbmdlcnByaW50Ij48cGF0aCBkPSJNNTUxLjU1LDEwNDEgQzYxNi41NiwxMDQxIDcxNS4zMSwxMDQxIDc5Mi43MiwxMDQxICIgZmlsbD0ibm9uZSIgaWQ9IlJlcG9ydCBEdXR5LXRvLVZlcmlmeSBVc2luZyBGaW5nZXJwcmludCIgc3R5bGU9InN0cm9rZTojMTgxODE4O3N0cm9rZS13aWR0aDoxLjA7c3Ryb2tlLWRhc2hhcnJheTo3LjAsNy4wOyIvPjxwb2x5Z29uIGZpbGw9IiMxODE4MTgiIHBvaW50cz0iNzk4LjcyLDEwNDEsNzg5LjcyLDEwMzcsNzkzLjcyLDEwNDEsNzg5LjcyLDEwNDUsNzk4LjcyLDEwNDEiIHN0eWxlPSJzdHJva2U6IzE4MTgxODtzdHJva2Utd2lkdGg6MS4wOyIvPjx0ZXh0IGZpbGw9IiMwMDAwMDAiIGZvbnQtZmFtaWx5PSJzYW5zLXNlcmlmIiBmb250LXNpemU9IjEzIiBsZW5ndGhBZGp1c3Q9InNwYWNpbmciIHRleHRMZW5ndGg9IjYxIiB4PSI2ODYuNSIgeT0iMTAzOS4yODkxIj4mIzE3MTtpbmNsdWRlJiMxODc7PC90ZXh0PjwvZz48IS0tbGluayBDVCB0byBNYXJrIFN0dWRlbnRzIEF0dGVuZGVuY2UtLT48ZyBpZD0ibGlua19DVF9NYXJrIFN0dWRlbnRzIEF0dGVuZGVuY2UiPjxwYXRoIGQ9Ik0yMzYuNTEsMjE3LjQzIEMyNjIuMjcsMTcyLjQyIDMwMiwxMDMgMzAyLDEwMyBDMzAyLDEwMyAzNjQuMjUsODkuNzIgNDE3LjAxLDc4LjQ3ICIgZmlsbD0ibm9uZSIgaWQ9IkNULU1hcmsgU3R1ZGVudHMgQXR0ZW5kZW5jZSIgc3R5bGU9InN0cm9rZTojMTgxODE4O3N0cm9rZS13aWR0aDoxLjA7Ii8+PC9nPjwhLS1saW5rIENUIHRvIENvbGxlY3QgU2Nob29sIEZlZXMtLT48ZyBpZD0ibGlua19DVF9Db2xsZWN0IFNjaG9vbCBGZWVzIj48cGF0aCBkPSJNMjU2Ljk3LDIxNy4zNyBDMjc5LjIyLDE5Ny40MiAzMDIsMTc3IDMwMiwxNzcgQzMwMiwxNzcgMzcxLjQsMTYzLjMgNDI1Ljc2LDE1Mi41OCAiIGZpbGw9Im5vbmUiIGlkPSJDVC1Db2xsZWN0IFNjaG9vbCBGZWVzIiBzdHlsZT0ic3Ryb2tlOiMxODE4MTg7c3Ryb2tlLXdpZHRoOjEuMDsiLz48L2c+PCEtLWxpbmsgQ1QgdG8gQ29sbGVjdCBQYXJlbnRzIExldHRlcnMtLT48ZyBpZD0ibGlua19DVF9Db2xsZWN0IFBhcmVudHMgTGV0dGVycyI+PHBhdGggZD0iTTI1OS43MSwyNDguODEgQzI5OS41MiwyNDMuMyAzNTguNzUsMjM1LjEgNDA3LjExLDIyOC40ICIgZmlsbD0ibm9uZSIgaWQ9IkNULUNvbGxlY3QgUGFyZW50cyBMZXR0ZXJzIiBzdHlsZT0ic3Ryb2tlOiMxODE4MTg7c3Ryb2tlLXdpZHRoOjEuMDsiLz48L2c+PCEtLWxpbmsgQ1QgdG8gU29ydCBFeGFtIFJlc3VsdHMtLT48ZyBpZD0ibGlua19DVF9Tb3J0IEV4YW0gUmVzdWx0cyI+PHBhdGggZD0iTTI1OS43MSwyNjEuMDMgQzMwMy43NywyNjYuOTcgMzcxLjY0LDI3Ni4xMSA0MjIuMjEsMjgyLjkzICIgZmlsbD0ibm9uZSIgaWQ9IkNULVNvcnQgRXhhbSBSZXN1bHRzIiBzdHlsZT0ic3Ryb2tlOiMxODE4MTg7c3Ryb2tlLXdpZHRoOjEuMDsiLz48L2c+PCEtLWxpbmsgQ1QgdG8gRW50ZXIgRXhhbSBSZXN1bHRzIGludG8gU3R1ZGVudCBSZXBvcnQgQm9vay0tPjxnIGlkPSJsaW5rX0NUX0VudGVyIEV4YW0gUmVzdWx0cyBpbnRvIFN0dWRlbnQgUmVwb3J0IEJvb2siPjxwYXRoIGQ9Ik0yNTkuNTIsMjkxLjg0IEMyODAuOTIsMzA5LjU2IDMwMiwzMjcgMzAyLDMyNyBDMzAyLDMyNyAzNDUuODEsMzM5LjYyIDM5MS4wOCwzNTIuNjYgIiBmaWxsPSJub25lIiBpZD0iQ1QtRW50ZXIgRXhhbSBSZXN1bHRzIGludG8gU3R1ZGVudCBSZXBvcnQgQm9vayIgc3R5bGU9InN0cm9rZTojMTgxODE4O3N0cm9rZS13aWR0aDoxLjA7Ii8+PC9nPjwhLS1saW5rIFNvcnQgRXhhbSBSZXN1bHRzIHRvIEdyYWRlIFN0dWRlbnRzLS0+PGcgaWQ9ImxpbmtfU29ydCBFeGFtIFJlc3VsdHNfR3JhZGUgU3R1ZGVudHMiPjxwYXRoIGQ9Ik01NjkuOTcsMjkyIEM2NDUuMjgsMjkyIDc1MS44OCwyOTIgODIzLjc1LDI5MiAiIGZpbGw9Im5vbmUiIGlkPSJTb3J0IEV4YW0gUmVzdWx0cy10by1HcmFkZSBTdHVkZW50cyIgc3R5bGU9InN0cm9rZTojMTgxODE4O3N0cm9rZS13aWR0aDoxLjA7c3Ryb2tlLWRhc2hhcnJheTo3LjAsNy4wOyIvPjxwb2x5Z29uIGZpbGw9IiMxODE4MTgiIHBvaW50cz0iODI5Ljc1LDI5Miw4MjAuNzUsMjg4LDgyNC43NSwyOTIsODIwLjc1LDI5Niw4MjkuNzUsMjkyIiBzdHlsZT0ic3Ryb2tlOiMxODE4MTg7c3Ryb2tlLXdpZHRoOjEuMDsiLz48dGV4dCBmaWxsPSIjMDAwMDAwIiBmb250LWZhbWlseT0ic2Fucy1zZXJpZiIgZm9udC1zaXplPSIxMyIgbGVuZ3RoQWRqdXN0PSJzcGFjaW5nIiB0ZXh0TGVuZ3RoPSI2MSIgeD0iNjg2LjUiIHk9IjI5MC4yODkxIj4mIzE3MTtpbmNsdWRlJiMxODc7PC90ZXh0PjwvZz48IS0tbGluayBFbnRlciBFeGFtIFJlc3VsdHMgaW50byBTdHVkZW50IFJlcG9ydCBCb29rIHRvIFJhbmsgU3R1ZGVudHMtLT48ZyBpZD0ibGlua19FbnRlciBFeGFtIFJlc3VsdHMgaW50byBTdHVkZW50IFJlcG9ydCBCb29rX1JhbmsgU3R1ZGVudHMiPjxwYXRoIGQ9Ik02NTUuMjgsMzgxIEM3MTcuNDYsMzgxIDc3OC43OSwzODEgODI2LjgxLDM4MSAiIGZpbGw9Im5vbmUiIGlkPSJFbnRlciBFeGFtIFJlc3VsdHMgaW50byBTdHVkZW50IFJlcG9ydCBCb29rLXRvLVJhbmsgU3R1ZGVudHMiIHN0eWxlPSJzdHJva2U6IzE4MTgxODtzdHJva2Utd2lkdGg6MS4wO3N0cm9rZS1kYXNoYXJyYXk6Ny4wLDcuMDsiLz48cG9seWdvbiBmaWxsPSIjMTgxODE4IiBwb2ludHM9IjgzMi44MSwzODEsODIzLjgxLDM3Nyw4MjcuODEsMzgxLDgyMy44MSwzODUsODMyLjgxLDM4MSIgc3R5bGU9InN0cm9rZTojMTgxODE4O3N0cm9rZS13aWR0aDoxLjA7Ii8+PHRleHQgZmlsbD0iIzAwMDAwMCIgZm9udC1mYW1pbHk9InNhbnMtc2VyaWYiIGZvbnQtc2l6ZT0iMTMiIGxlbmd0aEFkanVzdD0ic3BhY2luZyIgdGV4dExlbmd0aD0iNjEiIHg9IjY4Ni41IiB5PSIzNzkuMjg5MSI+JiMxNzE7aW5jbHVkZSYjMTg3OzwvdGV4dD48L2c+PCEtLWxpbmsgU0ggdG8gQ29vcmRpbmF0ZSBUZWFjaGVycy0tPjxnIGlkPSJsaW5rX1NIX0Nvb3JkaW5hdGUgVGVhY2hlcnMiPjxwYXRoIGQ9Ik0yNDQuOTQsNTc5LjQ5IEMyNzAuMTEsNTQ3Ljk2IDMwMiw1MDggMzAyLDUwOCBDMzAyLDUwOCAzNzEuNCw0OTQuMyA0MjUuNzYsNDgzLjU4ICIgZmlsbD0ibm9uZSIgaWQ9IlNILUNvb3JkaW5hdGUgVGVhY2hlcnMiIHN0eWxlPSJzdHJva2U6IzE4MTgxODtzdHJva2Utd2lkdGg6MS4wOyIvPjwvZz48IS0tbGluayBTSCB0byBDb29yZGluYXRlIFN0dWRlbnRzLS0+PGcgaWQ9ImxpbmtfU0hfQ29vcmRpbmF0ZSBTdHVkZW50cyI+PHBhdGggZD0iTTI2My4wOCw1OTcuNjYgQzI4My4yLDU4OS41NiAzMDIsNTgyIDMwMiw1ODIgQzMwMiw1ODIgMzcxLjQsNTY4LjMgNDI1Ljc2LDU1Ny41OCAiIGZpbGw9Im5vbmUiIGlkPSJTSC1Db29yZGluYXRlIFN0dWRlbnRzIiBzdHlsZT0ic3Ryb2tlOiMxODE4MTg7c3Ryb2tlLXdpZHRoOjEuMDsiLz48L2c+PCEtLWxpbmsgU0ggdG8gT3JnYW5pemUgRXZlbnRzLS0+PGcgaWQ9ImxpbmtfU0hfT3JnYW5pemUgRXZlbnRzIj48cGF0aCBkPSJNMjYzLjEzLDYxNyBDMzA1Ljk1LDYxNyAzNjkuMTcsNjE3IDQxNy45Miw2MTcgIiBmaWxsPSJub25lIiBpZD0iU0gtT3JnYW5pemUgRXZlbnRzIiBzdHlsZT0ic3Ryb2tlOiMxODE4MTg7c3Ryb2tlLXdpZHRoOjEuMDsiLz48L2c+PCEtLWxpbmsgU0ggdG8gQ29sbGFib3JhdGUgd2l0aCB0aGUgTWFuYWdlbWVudC0tPjxnIGlkPSJsaW5rX1NIX0NvbGxhYm9yYXRlIHdpdGggdGhlIE1hbmFnZW1lbnQiPjxwYXRoIGQ9Ik0yNjMuMDgsNjM1Ljc5IEMyODMuMiw2NDMuNjUgMzAyLDY1MSAzMDIsNjUxIEMzMDIsNjUxIDM1Ni4yOSw2NjQuMzIgNDA2LjQ0LDY3Ni42MiAiIGZpbGw9Im5vbmUiIGlkPSJTSC1Db2xsYWJvcmF0ZSB3aXRoIHRoZSBNYW5hZ2VtZW50IiBzdHlsZT0ic3Ryb2tlOiMxODE4MTg7c3Ryb2tlLXdpZHRoOjEuMDsiLz48L2c+PCEtLWxpbmsgQ29sbGFib3JhdGUgd2l0aCB0aGUgTWFuYWdlbWVudCB0byBLZWVwIFJlY29yZHMtLT48ZyBpZD0ibGlua19Db2xsYWJvcmF0ZSB3aXRoIHRoZSBNYW5hZ2VtZW50X0tlZXAgUmVjb3JkcyI+PHBhdGggZD0iTTYxNS4yNyw2OTcgQzY4OCw2OTcgNzcwLjg4LDY5NyA4MjkuNDUsNjk3ICIgZmlsbD0ibm9uZSIgaWQ9IkNvbGxhYm9yYXRlIHdpdGggdGhlIE1hbmFnZW1lbnQtdG8tS2VlcCBSZWNvcmRzIiBzdHlsZT0ic3Ryb2tlOiMxODE4MTg7c3Ryb2tlLXdpZHRoOjEuMDtzdHJva2UtZGFzaGFycmF5OjcuMCw3LjA7Ii8+PHBvbHlnb24gZmlsbD0iIzE4MTgxOCIgcG9pbnRzPSI4MzUuNDUsNjk3LDgyNi40NSw2OTMsODMwLjQ1LDY5Nyw4MjYuNDUsNzAxLDgzNS40NSw2OTciIHN0eWxlPSJzdHJva2U6IzE4MTgxODtzdHJva2Utd2lkdGg6MS4wOyIvPjx0ZXh0IGZpbGw9IiMwMDAwMDAiIGZvbnQtZmFtaWx5PSJzYW5zLXNlcmlmIiBmb250LXNpemU9IjEzIiBsZW5ndGhBZGp1c3Q9InNwYWNpbmciIHRleHRMZW5ndGg9IjYxIiB4PSI2ODYuNSIgeT0iNjk1LjI4OTEiPiYjMTcxO2luY2x1ZGUmIzE4Nzs8L3RleHQ+PC9nPjwhLS1saW5rIE9yZ2FuaXplIEV2ZW50cyB0byBJbmZvcm0gU3R1ZGVudHMgYW5kIFRlYWNoZXJzLS0+PGcgaWQ9ImxpbmtfT3JnYW5pemUgRXZlbnRzX0luZm9ybSBTdHVkZW50cyBhbmQgVGVhY2hlcnMiPjxwYXRoIGQ9Ik01NjMuMzMsNjE3IEM2MjQuNzEsNjE3IDcwOC4xMiw2MTcgNzc5LjE1LDYxNyAiIGZpbGw9Im5vbmUiIGlkPSJPcmdhbml6ZSBFdmVudHMtdG8tSW5mb3JtIFN0dWRlbnRzIGFuZCBUZWFjaGVycyIgc3R5bGU9InN0cm9rZTojMTgxODE4O3N0cm9rZS13aWR0aDoxLjA7c3Ryb2tlLWRhc2hhcnJheTo3LjAsNy4wOyIvPjxwb2x5Z29uIGZpbGw9IiMxODE4MTgiIHBvaW50cz0iNzg1LjE1LDYxNyw3NzYuMTUsNjEzLDc4MC4xNSw2MTcsNzc2LjE1LDYyMSw3ODUuMTUsNjE3IiBzdHlsZT0ic3Ryb2tlOiMxODE4MTg7c3Ryb2tlLXdpZHRoOjEuMDsiLz48dGV4dCBmaWxsPSIjMDAwMDAwIiBmb250LWZhbWlseT0ic2Fucy1zZXJpZiIgZm9udC1zaXplPSIxMyIgbGVuZ3RoQWRqdXN0PSJzcGFjaW5nIiB0ZXh0TGVuZ3RoPSI2MSIgeD0iNjg2LjUiIHk9IjYxNS4yODkxIj4mIzE3MTtpbmNsdWRlJiMxODc7PC90ZXh0PjwvZz48IS0tbGluayBUUiB0byBDb2xsZWN0IFNjaG9vbCBGZWVzIGZyb20gQ2xhc3MgVGVhY2hlcnMtLT48ZyBpZD0ibGlua19UUl9Db2xsZWN0IFNjaG9vbCBGZWVzIGZyb20gQ2xhc3MgVGVhY2hlcnMiPjxwYXRoIGQ9Ik0yNDUuOTIsODk2LjE1IEMyNzAuOTIsODcyIDMwMiw4NDIgMzAyLDg0MiBDMzAyLDg0MiAzNDguMzMsODI5LjY1IDM5NC45Myw4MTcuMjIgIiBmaWxsPSJub25lIiBpZD0iVFItQ29sbGVjdCBTY2hvb2wgRmVlcyBmcm9tIENsYXNzIFRlYWNoZXJzIiBzdHlsZT0ic3Ryb2tlOiMxODE4MTg7c3Ryb2tlLXdpZHRoOjEuMDsiLz48L2c+PCEtLWxpbmsgVFIgdG8gRGVwb3NpdCBGdW5kcyB0byBTY2hvb2wgQWNjb3VudC0tPjxnIGlkPSJsaW5rX1RSX0RlcG9zaXQgRnVuZHMgdG8gU2Nob29sIEFjY291bnQiPjxwYXRoIGQ9Ik0yNDUuNjksOTIxLjY0IEMyNzkuNjksOTE2LjgxIDMzNi4zMyw5MDguNzYgMzg2LjQ3LDkwMS42NCAiIGZpbGw9Im5vbmUiIGlkPSJUUi1EZXBvc2l0IEZ1bmRzIHRvIFNjaG9vbCBBY2NvdW50IiBzdHlsZT0ic3Ryb2tlOiMxODE4MTg7c3Ryb2tlLXdpZHRoOjEuMDsiLz48L2c+PCEtLWxpbmsgVFIgdG8gS2VlcCBGaW5hbmNpYWwgUmVjb3Jkcy0tPjxnIGlkPSJsaW5rX1RSX0tlZXAgRmluYW5jaWFsIFJlY29yZHMiPjxwYXRoIGQ9Ik0yNDUuNjksOTMwLjkyIEMyODYuMDUsOTM3LjM5IDM1OC4zNCw5NDguOTggNDEzLjc2LDk1Ny44NiAiIGZpbGw9Im5vbmUiIGlkPSJUUi1LZWVwIEZpbmFuY2lhbCBSZWNvcmRzIiBzdHlsZT0ic3Ryb2tlOiMxODE4MTg7c3Ryb2tlLXdpZHRoOjEuMDsiLz48L2c+PCEtLWxpbmsgRGVwb3NpdCBGdW5kcyB0byBTY2hvb2wgQWNjb3VudCB0byBSZWNvcmQgVHJhbnNhY3Rpb25zLS0+PGcgaWQ9ImxpbmtfRGVwb3NpdCBGdW5kcyB0byBTY2hvb2wgQWNjb3VudF9SZWNvcmQgVHJhbnNhY3Rpb25zIj48cGF0aCBkPSJNNjE0LjE3LDg4NyBDNjc5LDg4NyA3NTAuOTEsODg3IDgwOC43Niw4ODcgIiBmaWxsPSJub25lIiBpZD0iRGVwb3NpdCBGdW5kcyB0byBTY2hvb2wgQWNjb3VudC10by1SZWNvcmQgVHJhbnNhY3Rpb25zIiBzdHlsZT0ic3Ryb2tlOiMxODE4MTg7c3Ryb2tlLXdpZHRoOjEuMDtzdHJva2UtZGFzaGFycmF5OjcuMCw3LjA7Ii8+PHBvbHlnb24gZmlsbD0iIzE4MTgxOCIgcG9pbnRzPSI4MTQuNzYsODg3LDgwNS43Niw4ODMsODA5Ljc2LDg4Nyw4MDUuNzYsODkxLDgxNC43Niw4ODciIHN0eWxlPSJzdHJva2U6IzE4MTgxODtzdHJva2Utd2lkdGg6MS4wOyIvPjx0ZXh0IGZpbGw9IiMwMDAwMDAiIGZvbnQtZmFtaWx5PSJzYW5zLXNlcmlmIiBmb250LXNpemU9IjEzIiBsZW5ndGhBZGp1c3Q9InNwYWNpbmciIHRleHRMZW5ndGg9IjYxIiB4PSI2ODYuNSIgeT0iODg1LjI4OTEiPiYjMTcxO2luY2x1ZGUmIzE4Nzs8L3RleHQ+PC9nPjwhLS1saW5rIFMgdG8gQ3JlYXRlIENsdWJzIGFuZCBTb2NpZXRpZXMtLT48ZyBpZD0ibGlua19TX0NyZWF0ZSBDbHVicyBhbmQgU29jaWV0aWVzIj48cGF0aCBkPSJNNzkuNjEsMTgxNi44OSBDMTM2LjA2LDE4MTYuNjMgMjgxLjY3LDE4MTUuOTYgMzgzLjE5LDE4MTUuNDkgIiBmaWxsPSJub25lIiBpZD0iUy1DcmVhdGUgQ2x1YnMgYW5kIFNvY2lldGllcyIgc3R5bGU9InN0cm9rZTojMTgxODE4O3N0cm9rZS13aWR0aDoxLjA7Ii8+PC9nPjwhLS1saW5rIFMgdG8gUGF5IFNjaG9vbCBGZWVzLS0+PGcgaWQ9ImxpbmtfU19QYXkgU2Nob29sIEZlZXMiPjxwYXRoIGQ9Ik03OS42MSwxODIxLjAzIEMxNDUuODcsMTgzMi4zNCAzMzQuOTUsMTg2NC42MiA0MzEuNCwxODgxLjA4ICIgZmlsbD0ibm9uZSIgaWQ9IlMtUGF5IFNjaG9vbCBGZWVzIiBzdHlsZT0ic3Ryb2tlOiMxODE4MTg7c3Ryb2tlLXdpZHRoOjEuMDsiLz48L2c+PCEtLXJldmVyc2UgbGluayBDcmVhdGUgQ2x1YnMgYW5kIFNvY2lldGllcyB0byBBZGQgTWVtYmVycy0tPjxnIGlkPSJsaW5rX0NyZWF0ZSBDbHVicyBhbmQgU29jaWV0aWVzX0FkZCBNZW1iZXJzIj48cGF0aCBkPSJNNjAzLjEwODksMTgxMi44MDI2IEM2NzkuNzY4OSwxODExLjMwMjYgNzc0Ljc3LDE4MDkuNDMgODM4LjE4LDE4MDguMTkgIiBmaWxsPSJub25lIiBpZD0iQ3JlYXRlIENsdWJzIGFuZCBTb2NpZXRpZXMtYmFja3RvLUFkZCBNZW1iZXJzIiBzdHlsZT0ic3Ryb2tlOiMxODE4MTg7c3Ryb2tlLXdpZHRoOjEuMDtzdHJva2UtZGFzaGFycmF5OjcuMCw3LjA7Ii8+PHBvbHlnb24gZmlsbD0iIzE4MTgxOCIgcG9pbnRzPSI1OTcuMTEsMTgxMi45Miw2MDYuMTg2NSwxODE2Ljc0MzIsNjAyLjEwOSwxODEyLjgyMjIsNjA2LjAzLDE4MDguNzQ0Nyw1OTcuMTEsMTgxMi45MiIgc3R5bGU9InN0cm9rZTojMTgxODE4O3N0cm9rZS13aWR0aDoxLjA7Ii8+PHRleHQgZmlsbD0iIzAwMDAwMCIgZm9udC1mYW1pbHk9InNhbnMtc2VyaWYiIGZvbnQtc2l6ZT0iMTMiIGxlbmd0aEFkanVzdD0ic3BhY2luZyIgdGV4dExlbmd0aD0iNjIiIHg9IjY4NiIgeT0iMTgwOS4yODkxIj4mIzE3MTtleHRlbmRzJiMxODc7PC90ZXh0PjwvZz48IS0tcmV2ZXJzZSBsaW5rIENyZWF0ZSBDbHVicyBhbmQgU29jaWV0aWVzIHRvIEluZm9ybSBNZW1iZXJzLS0+PGcgaWQ9ImxpbmtfQ3JlYXRlIENsdWJzIGFuZCBTb2NpZXRpZXNfSW5mb3JtIE1lbWJlcnMiPjxwYXRoIGQ9Ik01ODcuMjYsMTgyOC42NDY1IEM2NjUuNTcsMTgzOS44MDY1IDc3MSwxODU0LjgzIDgzOC44LDE4NjQuNDkgIiBmaWxsPSJub25lIiBpZD0iQ3JlYXRlIENsdWJzIGFuZCBTb2NpZXRpZXMtYmFja3RvLUluZm9ybSBNZW1iZXJzIiBzdHlsZT0ic3Ryb2tlOiMxODE4MTg7c3Ryb2tlLXdpZHRoOjEuMDtzdHJva2UtZGFzaGFycmF5OjcuMCw3LjA7Ii8+PHBvbHlnb24gZmlsbD0iIzE4MTgxOCIgcG9pbnRzPSI1ODEuMzIsMTgyNy44LDU4OS42NjU2LDE4MzMuMDI5OCw1ODYuMjcsMTgyOC41MDU0LDU5MC43OTQzLDE4MjUuMTA5OCw1ODEuMzIsMTgyNy44IiBzdHlsZT0ic3Ryb2tlOiMxODE4MTg7c3Ryb2tlLXdpZHRoOjEuMDsiLz48dGV4dCBmaWxsPSIjMDAwMDAwIiBmb250LWZhbWlseT0ic2Fucy1zZXJpZiIgZm9udC1zaXplPSIxMyIgbGVuZ3RoQWRqdXN0PSJzcGFjaW5nIiB0ZXh0TGVuZ3RoPSI2MiIgeD0iNjg2IiB5PSIxODQyLjI4OTEiPiYjMTcxO2V4dGVuZHMmIzE4Nzs8L3RleHQ+PC9nPjwhLS1saW5rIFNQIHRvIEFzc2lzdCBpbiBTdHVkZW50IERpc2NpcGxpbmUtLT48ZyBpZD0ibGlua19TUF9Bc3Npc3QgaW4gU3R1ZGVudCBEaXNjaXBsaW5lIj48cGF0aCBkPSJNMjQyLjA1LDE3MTYuMDUgQzI2Ny41OSwxNzA2LjY2IDMwMiwxNjk0IDMwMiwxNjk0IEMzMDIsMTY5NCAzNTkuMDgsMTY4MS4yMSA0MTAuMjUsMTY2OS43NSAiIGZpbGw9Im5vbmUiIGlkPSJTUC1Bc3Npc3QgaW4gU3R1ZGVudCBEaXNjaXBsaW5lIiBzdHlsZT0ic3Ryb2tlOiMxODE4MTg7c3Ryb2tlLXdpZHRoOjEuMDsiLz48L2c+PCEtLWxpbmsgU1AgdG8gT3JnYW5pemUgU3R1ZGVudCBFdmVudHMtLT48ZyBpZD0ibGlua19TUF9Pcmdhbml6ZSBTdHVkZW50IEV2ZW50cyI+PHBhdGggZD0iTTI0Mi4zMiwxNzI2LjggQzI3Ny4zOCwxNzI3LjgyIDM0MC4wNCwxNzI5LjY0IDM5My41LDE3MzEuMiAiIGZpbGw9Im5vbmUiIGlkPSJTUC1Pcmdhbml6ZSBTdHVkZW50IEV2ZW50cyIgc3R5bGU9InN0cm9rZTojMTgxODE4O3N0cm9rZS13aWR0aDoxLjA7Ii8+PC9nPjwhLS1saW5rIEFzc2lzdCBpbiBTdHVkZW50IERpc2NpcGxpbmUgdG8gUmVwb3J0IE1pc2NvbmR1Y3RzLS0+PGcgaWQ9ImxpbmtfQXNzaXN0IGluIFN0dWRlbnQgRGlzY2lwbGluZV9SZXBvcnQgTWlzY29uZHVjdHMiPjxwYXRoIGQ9Ik02MDQuMDYsMTY1MiBDNjcxLjk0LDE2NTIgNzUwLjgxLDE2NTIgODExLjk3LDE2NTIgIiBmaWxsPSJub25lIiBpZD0iQXNzaXN0IGluIFN0dWRlbnQgRGlzY2lwbGluZS10by1SZXBvcnQgTWlzY29uZHVjdHMiIHN0eWxlPSJzdHJva2U6IzE4MTgxODtzdHJva2Utd2lkdGg6MS4wO3N0cm9rZS1kYXNoYXJyYXk6Ny4wLDcuMDsiLz48cG9seWdvbiBmaWxsPSIjMTgxODE4IiBwb2ludHM9IjgxNy45NywxNjUyLDgwOC45NywxNjQ4LDgxMi45NywxNjUyLDgwOC45NywxNjU2LDgxNy45NywxNjUyIiBzdHlsZT0ic3Ryb2tlOiMxODE4MTg7c3Ryb2tlLXdpZHRoOjEuMDsiLz48dGV4dCBmaWxsPSIjMDAwMDAwIiBmb250LWZhbWlseT0ic2Fucy1zZXJpZiIgZm9udC1zaXplPSIxMyIgbGVuZ3RoQWRqdXN0PSJzcGFjaW5nIiB0ZXh0TGVuZ3RoPSI2MSIgeD0iNjg2LjUiIHk9IjE2NTAuMjg5MSI+JiMxNzE7aW5jbHVkZSYjMTg3OzwvdGV4dD48L2c+PCEtLWxpbmsgT3JnYW5pemUgU3R1ZGVudCBFdmVudHMgdG8gSW5mb3JtIFN0dWRlbnRzLS0+PGcgaWQ9ImxpbmtfT3JnYW5pemUgU3R1ZGVudCBFdmVudHNfSW5mb3JtIFN0dWRlbnRzIj48cGF0aCBkPSJNNTg4LjIxLDE3MzQgQzY2MS4zMywxNzM0IDc1NC4xLDE3MzQgODIwLjM5LDE3MzQgIiBmaWxsPSJub25lIiBpZD0iT3JnYW5pemUgU3R1ZGVudCBFdmVudHMtdG8tSW5mb3JtIFN0dWRlbnRzIiBzdHlsZT0ic3Ryb2tlOiMxODE4MTg7c3Ryb2tlLXdpZHRoOjEuMDtzdHJva2UtZGFzaGFycmF5OjcuMCw3LjA7Ii8+PHBvbHlnb24gZmlsbD0iIzE4MTgxOCIgcG9pbnRzPSI4MjYuMzksMTczNCw4MTcuMzksMTczMCw4MjEuMzksMTczNCw4MTcuMzksMTczOCw4MjYuMzksMTczNCIgc3R5bGU9InN0cm9rZTojMTgxODE4O3N0cm9rZS13aWR0aDoxLjA7Ii8+PHRleHQgZmlsbD0iIzAwMDAwMCIgZm9udC1mYW1pbHk9InNhbnMtc2VyaWYiIGZvbnQtc2l6ZT0iMTMiIGxlbmd0aEFkanVzdD0ic3BhY2luZyIgdGV4dExlbmd0aD0iNjEiIHg9IjY4Ni41IiB5PSIxNzMyLjI4OTEiPiYjMTcxO2luY2x1ZGUmIzE4Nzs8L3RleHQ+PC9nPjwhLS1saW5rIFAgdG8gT3ZlcmFsbCBTY2hvb2wgTWFuYWdlbWVudC0tPjxnIGlkPSJsaW5rX1BfT3ZlcmFsbCBTY2hvb2wgTWFuYWdlbWVudCI+PHBhdGggZD0iTTI0NS45MiwyMDU2LjI4IEMyNzAuOTIsMjAzMy44NiAzMDIsMjAwNiAzMDIsMjAwNiBDMzAyLDIwMDYgMzYyLjc4LDE5OTMuMDMgNDE1LjEzLDE5ODEuODcgIiBmaWxsPSJub25lIiBpZD0iUC1PdmVyYWxsIFNjaG9vbCBNYW5hZ2VtZW50IiBzdHlsZT0ic3Ryb2tlOiMxODE4MTg7c3Ryb2tlLXdpZHRoOjEuMDsiLz48L2c+PCEtLWxpbmsgUCB0byBPcmdhbml6ZSBTcGVjaWFsIEV2ZW50cy0tPjxnIGlkPSJsaW5rX1BfT3JnYW5pemUgU3BlY2lhbCBFdmVudHMiPjxwYXRoIGQ9Ik0yNDUuNjksMjA3OS43NSBDMjg0LjQ0LDIwNzQuMzkgMzUyLjYzLDIwNjQuOTUgNDA3LjA1LDIwNTcuNDEgIiBmaWxsPSJub25lIiBpZD0iUC1Pcmdhbml6ZSBTcGVjaWFsIEV2ZW50cyIgc3R5bGU9InN0cm9rZTojMTgxODE4O3N0cm9rZS13aWR0aDoxLjA7Ii8+PC9nPjwhLS1saW5rIFAgdG8gVGFrZSBJbXBvcnRhbnQgRGVjaXNpb25zLS0+PGcgaWQ9ImxpbmtfUF9UYWtlIEltcG9ydGFudCBEZWNpc2lvbnMiPjxwYXRoIGQ9Ik0yNDUuNjksMjA4OC43IEMyODQuMzcsMjA5NC42MSAzNTIuMzgsMjEwNS4wMiA0MDYuNzYsMjExMy4zNCAiIGZpbGw9Im5vbmUiIGlkPSJQLVRha2UgSW1wb3J0YW50IERlY2lzaW9ucyIgc3R5bGU9InN0cm9rZTojMTgxODE4O3N0cm9rZS13aWR0aDoxLjA7Ii8+PC9nPjwhLS1saW5rIE9yZ2FuaXplIFNwZWNpYWwgRXZlbnRzIHRvIEluZm9ybSB0aGUgU2Nob29sLS0+PGcgaWQ9ImxpbmtfT3JnYW5pemUgU3BlY2lhbCBFdmVudHNfSW5mb3JtIHRoZSBTY2hvb2wiPjxwYXRoIGQ9Ik01ODcuOTUsMjA0NC4zNCBDNjU4Ljk0LDIwNDMuMTIgNzQ4LjIzMDksMjA0MS41ODMzIDgxNC40NjA5LDIwNDAuNDQzMyAiIGZpbGw9Im5vbmUiIGlkPSJPcmdhbml6ZSBTcGVjaWFsIEV2ZW50cy10by1JbmZvcm0gdGhlIFNjaG9vbCIgc3R5bGU9InN0cm9rZTojMTgxODE4O3N0cm9rZS13aWR0aDoxLjA7c3Ryb2tlLWRhc2hhcnJheTo3LjAsNy4wOyIvPjxwb2x5Z29uIGZpbGw9IiMxODE4MTgiIHBvaW50cz0iODIwLjQ2LDIwNDAuMzQsODExLjM5MjUsMjAzNi40OTU1LDgxNS40NjA3LDIwNDAuNDI2MSw4MTEuNTMwMiwyMDQ0LjQ5NDMsODIwLjQ2LDIwNDAuMzQiIHN0eWxlPSJzdHJva2U6IzE4MTgxODtzdHJva2Utd2lkdGg6MS4wOyIvPjx0ZXh0IGZpbGw9IiMwMDAwMDAiIGZvbnQtZmFtaWx5PSJzYW5zLXNlcmlmIiBmb250LXNpemU9IjEzIiBsZW5ndGhBZGp1c3Q9InNwYWNpbmciIHRleHRMZW5ndGg9IjYxIiB4PSI2ODYuNSIgeT0iMjA0MC4yODkxIj4mIzE3MTtpbmNsdWRlJiMxODc7PC90ZXh0PjwvZz48IS0tbGluayBUYWtlIEltcG9ydGFudCBEZWNpc2lvbnMgdG8gQ29sbGFib3JhdGUgd2l0aCBUaGUgU3RhZmYtLT48ZyBpZD0ibGlua19UYWtlIEltcG9ydGFudCBEZWNpc2lvbnNfQ29sbGFib3JhdGUgd2l0aCBUaGUgU3RhZmYiPjxwYXRoIGQ9Ik01OTEuMDYsMjEyMy41NSBDNjUyLjEzLDIxMjIuMDUgNzI0LjI3MTgsMjEyMC4yNzc1IDc4Ni40OTE4LDIxMTguNzQ3NSAiIGZpbGw9Im5vbmUiIGlkPSJUYWtlIEltcG9ydGFudCBEZWNpc2lvbnMtdG8tQ29sbGFib3JhdGUgd2l0aCBUaGUgU3RhZmYiIHN0eWxlPSJzdHJva2U6IzE4MTgxODtzdHJva2Utd2lkdGg6MS4wO3N0cm9rZS1kYXNoYXJyYXk6Ny4wLDcuMDsiLz48cG9seWdvbiBmaWxsPSIjMTgxODE4IiBwb2ludHM9Ijc5Mi40OSwyMTE4LjYsNzgzLjM5NDQsMjExNC44MjI1LDc4Ny40OTE1LDIxMTguNzIyOSw3ODMuNTkxMSwyMTIyLjgyLDc5Mi40OSwyMTE4LjYiIHN0eWxlPSJzdHJva2U6IzE4MTgxODtzdHJva2Utd2lkdGg6MS4wOyIvPjx0ZXh0IGZpbGw9IiMwMDAwMDAiIGZvbnQtZmFtaWx5PSJzYW5zLXNlcmlmIiBmb250LXNpemU9IjEzIiBsZW5ndGhBZGp1c3Q9InNwYWNpbmciIHRleHRMZW5ndGg9IjYxIiB4PSI2ODYuNSIgeT0iMjExOC4yODkxIj4mIzE3MTtpbmNsdWRlJiMxODc7PC90ZXh0PjwvZz48IS0tbGluayBPdmVyYWxsIFNjaG9vbCBNYW5hZ2VtZW50IHRvIFNldCBTY2hvb2wgUG9saWNpZXMtLT48ZyBpZD0ibGlua19PdmVyYWxsIFNjaG9vbCBNYW5hZ2VtZW50X1NldCBTY2hvb2wgUG9saWNpZXMiPjxwYXRoIGQ9Ik01OTQuNzMsMTk2NiBDNjYyLjkxLDE5NjYgNzQ1LjEsMTk2NiA4MDguODgsMTk2NiAiIGZpbGw9Im5vbmUiIGlkPSJPdmVyYWxsIFNjaG9vbCBNYW5hZ2VtZW50LXRvLVNldCBTY2hvb2wgUG9saWNpZXMiIHN0eWxlPSJzdHJva2U6IzE4MTgxODtzdHJva2Utd2lkdGg6MS4wO3N0cm9rZS1kYXNoYXJyYXk6Ny4wLDcuMDsiLz48cG9seWdvbiBmaWxsPSIjMTgxODE4IiBwb2ludHM9IjgxNC44OCwxOTY2LDgwNS44OCwxOTYyLDgwOS44OCwxOTY2LDgwNS44OCwxOTcwLDgxNC44OCwxOTY2IiBzdHlsZT0ic3Ryb2tlOiMxODE4MTg7c3Ryb2tlLXdpZHRoOjEuMDsiLz48dGV4dCBmaWxsPSIjMDAwMDAwIiBmb250LWZhbWlseT0ic2Fucy1zZXJpZiIgZm9udC1zaXplPSIxMyIgbGVuZ3RoQWRqdXN0PSJzcGFjaW5nIiB0ZXh0TGVuZ3RoPSI2MSIgeD0iNjg2LjUiIHk9IjE5NjQuMjg5MSI+JiMxNzE7aW5jbHVkZSYjMTg3OzwvdGV4dD48L2c+PCEtLWxpbmsgVlAgdG8gQXNzaXN0IFByaW5jaXBhbC0tPjxnIGlkPSJsaW5rX1ZQX0Fzc2lzdCBQcmluY2lwYWwiPjxwYXRoIGQ9Ik0xMDQuMDcsMjMyNC45NiBDMTIwLjEyLDIzMTQuMjUgMTM0LDIzMDUgMTM0LDIzMDUgQzEzNCwyMzA1IDMwMiwyMjM2IDMwMiwyMjM2IEMzMDIsMjIzNiAzNzYuMTYsMjIyMi4xNiA0MzEuMiwyMjExLjg4ICIgZmlsbD0ibm9uZSIgaWQ9IlZQLUFzc2lzdCBQcmluY2lwYWwiIHN0eWxlPSJzdHJva2U6IzE4MTgxODtzdHJva2Utd2lkdGg6MS4wOyIvPjwvZz48IS0tbGluayBWUCB0byBDb29yZGluYXRlIFNjaG9vbCBNYW5hZ2VtZW50LS0+PGcgaWQ9ImxpbmtfVlBfQ29vcmRpbmF0ZSBTY2hvb2wgTWFuYWdlbWVudCI+PHBhdGggZD0iTTEwNC4wNywyMzQwLjk4IEMxMjAuMTIsMjMzNS42MyAxMzQsMjMzMSAxMzQsMjMzMSBDMTM0LDIzMzEgMjg5Ljg1LDIzMDguMiAzOTUuMTcsMjI5Mi44ICIgZmlsbD0ibm9uZSIgaWQ9IlZQLUNvb3JkaW5hdGUgU2Nob29sIE1hbmFnZW1lbnQiIHN0eWxlPSJzdHJva2U6IzE4MTgxODtzdHJva2Utd2lkdGg6MS4wOyIvPjwvZz48IS0tbGluayBWUCB0byBJc3N1ZWluZyBDaGVxdWVzLS0+PGcgaWQ9ImxpbmtfVlBfSXNzdWVpbmcgQ2hlcXVlcyI+PHBhdGggZD0iTTEwNC4wNSwyMzU3IEMxNzkuMzMsMjM1NyAzMjUuNjcsMjM1NyA0MTQuNzgsMjM1NyAiIGZpbGw9Im5vbmUiIGlkPSJWUC1Jc3N1ZWluZyBDaGVxdWVzIiBzdHlsZT0ic3Ryb2tlOiMxODE4MTg7c3Ryb2tlLXdpZHRoOjEuMDsiLz48L2c+PCEtLWxpbmsgVlAgdG8gQ29sbGVjdCBGdW5kcyBmb3IgRGV2ZWxvcG1lbnQtLT48ZyBpZD0ibGlua19WUF9Db2xsZWN0IEZ1bmRzIGZvciBEZXZlbG9wbWVudCI+PHBhdGggZD0iTTEwNC4wNSwyMzY1Ljc2IEMxNzUuMTQsMjM3OC43MSAzMDkuNiwyNDAzLjIyIDM5OS40LDI0MTkuNTggIiBmaWxsPSJub25lIiBpZD0iVlAtQ29sbGVjdCBGdW5kcyBmb3IgRGV2ZWxvcG1lbnQiIHN0eWxlPSJzdHJva2U6IzE4MTgxODtzdHJva2Utd2lkdGg6MS4wOyIvPjwvZz48IS0tbGluayBWUCB0byBSZWdpc3RlciBOZXcgU3R1ZGVudHMtLT48ZyBpZD0ibGlua19WUF9SZWdpc3RlciBOZXcgU3R1ZGVudHMiPjxwYXRoIGQ9Ik0xMDQuMDIsMjM4MC44MSBDMTc1LjYxLDI0MTYuMzIgMzAyLDI0NzkgMzAyLDI0NzkgQzMwMiwyNDc5IDM2OC45NywyNDkyLjkzIDQyMi44NywyNTA0LjE0ICIgZmlsbD0ibm9uZSIgaWQ9IlZQLVJlZ2lzdGVyIE5ldyBTdHVkZW50cyIgc3R5bGU9InN0cm9rZTojMTgxODE4O3N0cm9rZS13aWR0aDoxLjA7Ii8+PC9nPjwhLS1saW5rIFZQIHRvIEdlbmVyYXRlIFN0dWRlbnQgTGVhdmluZyBDZXJ0aWZpY2F0ZXMtLT48ZyBpZD0ibGlua19WUF9HZW5lcmF0ZSBTdHVkZW50IExlYXZpbmcgQ2VydGlmaWNhdGVzIj48cGF0aCBkPSJNOTIuOSwyMzk0LjU4IEMxMjQuNTIsMjQyNi43OCAxNjUsMjQ2OCAxNjUsMjQ2OCBDMTY1LDI0NjggMzAyLDI1NTYgMzAyLDI1NTYgQzMwMiwyNTU2IDM1MC41NCwyNTY4LjY4IDM5OC4yMiwyNTgxLjE1ICIgZmlsbD0ibm9uZSIgaWQ9IlZQLUdlbmVyYXRlIFN0dWRlbnQgTGVhdmluZyBDZXJ0aWZpY2F0ZXMiIHN0eWxlPSJzdHJva2U6IzE4MTgxODtzdHJva2Utd2lkdGg6MS4wOyIvPjwvZz48IS0tbGluayBHZW5lcmF0ZSBTdHVkZW50IExlYXZpbmcgQ2VydGlmaWNhdGVzIHRvIFVwZGF0ZSBMb2dzIGFuZCBSZWNvcmRzLS0+PGcgaWQ9ImxpbmtfR2VuZXJhdGUgU3R1ZGVudCBMZWF2aW5nIENlcnRpZmljYXRlc19VcGRhdGUgTG9ncyBhbmQgUmVjb3JkcyI+PHBhdGggZD0iTTYyNC40LDI1OTMuNjUgQzY4Ny4zNiwyNTg4LjI3IDc0OSwyNTgzIDc0OSwyNTgzIEM3NDksMjU4MyA3NzQuMjc3OSwyNTc5Ljc4NjUgODA4LjE4NzksMjU3NS40NzY1ICIgZmlsbD0ibm9uZSIgaWQ9IkdlbmVyYXRlIFN0dWRlbnQgTGVhdmluZyBDZXJ0aWZpY2F0ZXMtdG8tVXBkYXRlIExvZ3MgYW5kIFJlY29yZHMiIHN0eWxlPSJzdHJva2U6IzE4MTgxODtzdHJva2Utd2lkdGg6MS4wO3N0cm9rZS1kYXNoYXJyYXk6Ny4wLDcuMDsiLz48cG9seWdvbiBmaWxsPSIjMTgxODE4IiBwb2ludHM9IjgxNC4xNCwyNTc0LjcyLDgwNC43MDc1LDI1NzEuODg2Nyw4MDkuMTc5OSwyNTc1LjM1MDQsODA1LjcxNjIsMjU3OS44MjI5LDgxNC4xNCwyNTc0LjcyIiBzdHlsZT0ic3Ryb2tlOiMxODE4MTg7c3Ryb2tlLXdpZHRoOjEuMDsiLz48dGV4dCBmaWxsPSIjMDAwMDAwIiBmb250LWZhbWlseT0ic2Fucy1zZXJpZiIgZm9udC1zaXplPSIxMyIgbGVuZ3RoQWRqdXN0PSJzcGFjaW5nIiB0ZXh0TGVuZ3RoPSI2MSIgeD0iNjg2LjUiIHk9IjI1ODEuMjg5MSI+JiMxNzE7aW5jbHVkZSYjMTg3OzwvdGV4dD48L2c+PCEtLWxpbmsgQXNzaXN0IFByaW5jaXBhbCB0byBIYW5kbGUgQWRtaW5pc3RyYXRpdmUgVGFza3MtLT48ZyBpZD0ibGlua19Bc3Npc3QgUHJpbmNpcGFsX0hhbmRsZSBBZG1pbmlzdHJhdGl2ZSBUYXNrcyI+PHBhdGggZD0iTTU2Ni4xNSwyMjAwLjgyIEM2MjguNDYsMjIwMC42NiA3MTIuMTQsMjIwMC40NTQ1IDc4Mi42NCwyMjAwLjI4NDUgIiBmaWxsPSJub25lIiBpZD0iQXNzaXN0IFByaW5jaXBhbC10by1IYW5kbGUgQWRtaW5pc3RyYXRpdmUgVGFza3MiIHN0eWxlPSJzdHJva2U6IzE4MTgxODtzdHJva2Utd2lkdGg6MS4wO3N0cm9rZS1kYXNoYXJyYXk6Ny4wLDcuMDsiLz48cG9seWdvbiBmaWxsPSIjMTgxODE4IiBwb2ludHM9Ijc4OC42NCwyMjAwLjI3LDc3OS42MzA0LDIxOTYuMjkxNyw3ODMuNjQsMjIwMC4yODIxLDc3OS42NDk3LDIyMDQuMjkxNyw3ODguNjQsMjIwMC4yNyIgc3R5bGU9InN0cm9rZTojMTgxODE4O3N0cm9rZS13aWR0aDoxLjA7Ii8+PHRleHQgZmlsbD0iIzAwMDAwMCIgZm9udC1mYW1pbHk9InNhbnMtc2VyaWYiIGZvbnQtc2l6ZT0iMTMiIGxlbmd0aEFkanVzdD0ic3BhY2luZyIgdGV4dExlbmd0aD0iNjEiIHg9IjY4Ni41IiB5PSIyMTk5LjI4OTEiPiYjMTcxO2luY2x1ZGUmIzE4Nzs8L3RleHQ+PC9nPjwhLS1saW5rIENvb3JkaW5hdGUgU2Nob29sIE1hbmFnZW1lbnQgdG8gS2VlcCBNYW5hZ2VtZW50IFJlY29yZHMtLT48ZyBpZD0ibGlua19Db29yZGluYXRlIFNjaG9vbCBNYW5hZ2VtZW50X0tlZXAgTWFuYWdlbWVudCBSZWNvcmRzIj48cGF0aCBkPSJNNjA0LjYsMjI3OS44MyBDNjY2LjU5LDIyODAuMjkgNzM2LjYxMDIsMjI4MC44MDU0IDc5NS44MTAyLDIyODEuMjQ1NCAiIGZpbGw9Im5vbmUiIGlkPSJDb29yZGluYXRlIFNjaG9vbCBNYW5hZ2VtZW50LXRvLUtlZXAgTWFuYWdlbWVudCBSZWNvcmRzIiBzdHlsZT0ic3Ryb2tlOiMxODE4MTg7c3Ryb2tlLXdpZHRoOjEuMDtzdHJva2UtZGFzaGFycmF5OjcuMCw3LjA7Ii8+PHBvbHlnb24gZmlsbD0iIzE4MTgxOCIgcG9pbnRzPSI4MDEuODEsMjI4MS4yOSw3OTIuODQsMjI3Ny4yMjMyLDc5Ni44MTAxLDIyODEuMjUyOCw3OTIuNzgwNSwyMjg1LjIyMyw4MDEuODEsMjI4MS4yOSIgc3R5bGU9InN0cm9rZTojMTgxODE4O3N0cm9rZS13aWR0aDoxLjA7Ii8+PHRleHQgZmlsbD0iIzAwMDAwMCIgZm9udC1mYW1pbHk9InNhbnMtc2VyaWYiIGZvbnQtc2l6ZT0iMTMiIGxlbmd0aEFkanVzdD0ic3BhY2luZyIgdGV4dExlbmd0aD0iNjEiIHg9IjY4Ni41IiB5PSIyMjc5LjI4OTEiPiYjMTcxO2luY2x1ZGUmIzE4Nzs8L3RleHQ+PC9nPjwhLS1saW5rIENvbGxlY3QgRnVuZHMgZm9yIERldmVsb3BtZW50IHRvIENvbGxhYm9yYXRlIHdpdGggVHJlYXN1cmVyLS0+PGcgaWQ9ImxpbmtfQ29sbGVjdCBGdW5kcyBmb3IgRGV2ZWxvcG1lbnRfQ29sbGFib3JhdGUgd2l0aCBUcmVhc3VyZXIiPjxwYXRoIGQ9Ik02MDYuMjMsMjQ0MC41MSBDNjY1LDI0NDIuODIgNzMwLjA2NDcsMjQ0NS4zNzM3IDc4Ny40MDQ3LDI0NDcuNjMzNyAiIGZpbGw9Im5vbmUiIGlkPSJDb2xsZWN0IEZ1bmRzIGZvciBEZXZlbG9wbWVudC10by1Db2xsYWJvcmF0ZSB3aXRoIFRyZWFzdXJlciIgc3R5bGU9InN0cm9rZTojMTgxODE4O3N0cm9rZS13aWR0aDoxLjA7c3Ryb2tlLWRhc2hhcnJheTo3LjAsNy4wOyIvPjxwb2x5Z29uIGZpbGw9IiMxODE4MTgiIHBvaW50cz0iNzkzLjQsMjQ0Ny44Nyw3ODQuNTY0NSwyNDQzLjUxODcsNzg4LjQwMzksMjQ0Ny42NzMxLDc4NC4yNDk0LDI0NTEuNTEyNCw3OTMuNCwyNDQ3Ljg3IiBzdHlsZT0ic3Ryb2tlOiMxODE4MTg7c3Ryb2tlLXdpZHRoOjEuMDsiLz48dGV4dCBmaWxsPSIjMDAwMDAwIiBmb250LWZhbWlseT0ic2Fucy1zZXJpZiIgZm9udC1zaXplPSIxMyIgbGVuZ3RoQWRqdXN0PSJzcGFjaW5nIiB0ZXh0TGVuZ3RoPSI2MSIgeD0iNjg2LjUiIHk9IjI0NDIuMjg5MSI+JiMxNzE7aW5jbHVkZSYjMTg3OzwvdGV4dD48L2c+PCEtLWxpbmsgSXNzdWVpbmcgQ2hlcXVlcyB0byBDb2xsYWJvcmF0ZSB3aXRoIFRoZSBUcmVhc3VyZXItLT48ZyBpZD0ibGlua19Jc3N1ZWluZyBDaGVxdWVzX0NvbGxhYm9yYXRlIHdpdGggVGhlIFRyZWFzdXJlciI+PHBhdGggZD0iTTU2NS42OCwyMzU4LjY0IEM2MjUuMjksMjM1OS45NiA3MDQuMTkxNSwyMzYxLjcwODEgNzczLjMxMTUsMjM2My4yMjgxICIgZmlsbD0ibm9uZSIgaWQ9Iklzc3VlaW5nIENoZXF1ZXMtdG8tQ29sbGFib3JhdGUgd2l0aCBUaGUgVHJlYXN1cmVyIiBzdHlsZT0ic3Ryb2tlOiMxODE4MTg7c3Ryb2tlLXdpZHRoOjEuMDtzdHJva2UtZGFzaGFycmF5OjcuMCw3LjA7Ii8+PHBvbHlnb24gZmlsbD0iIzE4MTgxOCIgcG9pbnRzPSI3NzkuMzEsMjM2My4zNiw3NzAuNDAwMSwyMzU5LjE2MzEsNzc0LjMxMTIsMjM2My4yNTAxLDc3MC4yMjQyLDIzNjcuMTYxMiw3NzkuMzEsMjM2My4zNiIgc3R5bGU9InN0cm9rZTojMTgxODE4O3N0cm9rZS13aWR0aDoxLjA7Ii8+PHRleHQgZmlsbD0iIzAwMDAwMCIgZm9udC1mYW1pbHk9InNhbnMtc2VyaWYiIGZvbnQtc2l6ZT0iMTMiIGxlbmd0aEFkanVzdD0ic3BhY2luZyIgdGV4dExlbmd0aD0iNjEiIHg9IjY4Ni41IiB5PSIyMzYwLjI4OTEiPiYjMTcxO2luY2x1ZGUmIzE4Nzs8L3RleHQ+PC9nPjwhLS1saW5rIFJlZ2lzdGVyIE5ldyBTdHVkZW50cyB0byBVcGRhdGUgTG9ncyBhbmQgUmVjb3Jkcy0tPjxnIGlkPSJsaW5rX1JlZ2lzdGVyIE5ldyBTdHVkZW50c19VcGRhdGUgTG9ncyBhbmQgUmVjb3JkcyI+PHBhdGggZD0iTTU3Mi40LDI1MjcuMTQgQzY0MS42LDI1MzQuOTYgNzM0Ljk4OCwyNTQ1LjUxNTggODA1LjgxOCwyNTUzLjUyNTggIiBmaWxsPSJub25lIiBpZD0iUmVnaXN0ZXIgTmV3IFN0dWRlbnRzLXRvLVVwZGF0ZSBMb2dzIGFuZCBSZWNvcmRzIiBzdHlsZT0ic3Ryb2tlOiMxODE4MTg7c3Ryb2tlLXdpZHRoOjEuMDtzdHJva2UtZGFzaGFycmF5OjcuMCw3LjA7Ii8+PHBvbHlnb24gZmlsbD0iIzE4MTgxOCIgcG9pbnRzPSI4MTEuNzgsMjU1NC4yLDgwMy4yODY1LDI1NDkuMjE0LDgwNi44MTE3LDI1NTMuNjM4MSw4MDIuMzg3NSwyNTU3LjE2MzMsODExLjc4LDI1NTQuMiIgc3R5bGU9InN0cm9rZTojMTgxODE4O3N0cm9rZS13aWR0aDoxLjA7Ii8+PHRleHQgZmlsbD0iIzAwMDAwMCIgZm9udC1mYW1pbHk9InNhbnMtc2VyaWYiIGZvbnQtc2l6ZT0iMTMiIGxlbmd0aEFkanVzdD0ic3BhY2luZyIgdGV4dExlbmd0aD0iNjEiIHg9IjY4Ni41IiB5PSIyNTM5LjI4OTEiPiYjMTcxO2luY2x1ZGUmIzE4Nzs8L3RleHQ+PC9nPjwhLS1TUkM9W2JMUlJTamVtNDd0dEwtcGFnSm1hN3ozOVA4UUlmQ2FxUUpzT3lBeE9ZejRXOTVVSVFVWmJ0eGt3c0I3MVhmTzdIa3BiUUZWaUhHWFNNUjBBRDJfTjVXZ2tDUlRTb1NIaWtBb09QYmlHTkFCVExtWUw0ZGx0OHFiT1JmTTZZbU1vVjh0dzBmWTFISUVTMk1SZVBxU3JRdExQMDZTMjdmMExOZmF6ajZXUWNRYnJXcFRsZE1uVGVCSjFrWDZjNmJTNFBlOHFWSFRwY1ZFQTJJemxuS2tVOF9Icm9wSDk1ZDN6LV9CSW5IVEY1NG15cVZMUGJBTjlDV3I3U2Q3cUM1YUFYOGt4RHN1aWJvTGEtTGVmMFN6Q2lYQXQ1MmZhVXNEblVtNl80ZzNGMGladG1ubWhmSXRTcmRPX3dPWU43N3l1MTJuZ1dMcTVQS1p5OHpvektHcklMZzRzYW52U2hkRzFKc1lDYWZJUkFaS1RrblFGU2lUQkJmV0Q2M3RUQ3pFUkNVSWk5aWNFNnVJUGc1eURDNWIwZmRBRWJrRDEyRHpoRDlQWU8za0NUY2tOT24wNEtfVm5YbnUxUzdMckd4Y1p2Z2l6bDFaN3VacnplUXdlSTdPMjctN3djZ2ViZ0Y4dER1ZHRkdEtZWm9yWE82ZWpJWmhjYVJmZUQ1RDJLQTZRb2puWjR5czFGWU0yN1NtSjRleGtzc0drTTRfSDc0cWpSNXp4OXljWGZtT0FOM01IR0twc2FyQVJJT1hfMDMybXk1Y3AwamtLM2RGdGhsenBNbTJUQ3hhUG5WSVdzS0VhV2pnOEl6U2JTTVBaZWlWdzVnd2hfd1BCOWxiRndoN1RhU3hIcDV3TFRpdV9rNXMzTk1EZEoxZllwZmM1WkJ1V0xYMndWZllhbXFZMnN3RFNBUnJ6eG5aTmZNc1lHeG1pdmNDajEya2pqajNSUnlxeTE5elJBZUZYNWt2aE1IWXRMQUZwREN6THhWQmpzRmZxZ0VTUHhJSlFYcXJZYVA5cElCNzhPR1NpRDlFNi1TcXdLa2dHNFVyTlVzQWVXck5BemxzbllKS1FUdVJoZ29sdUMycUFVQ1JqUXFpaGxoZEhENHJycFdCNEdlcldYMFhKNy1CSzZEZ3lEMDVqX3p6b0d2bFRsS3NKaGM3UjRPclRxd0NYZjlDdTNTRC1pOXY5aGNISHZfUEN3bnJTRERZMldvTUEwVXpHQ282RU52SDlyd1l6aDRCVkV6dDkyb09CamE1dXRCaE9jS2tCeDhwbFprR210WnY0QnJ1dFhJNkdtUG43eG1XV0hxRXpTNzJNaExSMzM4dmM3azBvUjRTbkxPQmRsY3k2VTVwc01nSHp5WVRUUE5VYjNIQ1QzSC1EZ1Q2ekpSRXJWLWVFS0NBMjIyREFaMTQ1RW5JZ0VlQVBPcWQxcTBCX3dmeHd0WEFENWZ6SGVrd2lNRi0yLWVqSE14eFlFVWRRdWxzUlNRM2pmSWdTdlBDZ216MlRzZno3ZDBNODFfQVpscGxKT2lpYndVYmNsZ0V0V2ZkRENDbjlUWmtobEZEdHdMSEtmc2FVd3hOY2gtR1d2NTVQSnRKaVFRSlhvbHVOek5fLTBXMDBdLS0+PC9nPjwvc3ZnPg==;" vertex="1" parent="1">
            <mxGeometry x="-20" y="-950" width="1042" height="2658" as="geometry" />
          </mxCell>
        </UserObject>
      </root>
    </mxGraphModel>
  </diagram>
</mxfile>
